<svg width="110" height="100" viewBox="0 0 110 100" fill="none" xmlns="http://www.w3.org/2000/svg">
<g id="Frame 36870">
<g id="9">
<path id="Vector" d="M61.0748 95.1344C85.2012 95.1344 104.761 75.5747 104.761 51.3621C104.761 27.1495 85.1151 7.58984 61.0748 7.58984C36.9483 7.58984 17.3887 27.1495 17.3887 51.3621C17.3887 75.5747 36.9483 95.1344 61.0748 95.1344Z" fill="#F1F3F9" stroke="#D6DCE8" stroke-width="1.87546" stroke-miterlimit="10"/>
<path id="Vector_2" d="M101.918 22.6681C103.869 22.6681 105.45 21.0865 105.45 19.1353C105.45 17.1842 103.869 15.6025 101.918 15.6025C99.9665 15.6025 98.3848 17.1842 98.3848 19.1353C98.3848 21.0865 99.9665 22.6681 101.918 22.6681Z" fill="#F1F3F9"/>
<path id="Vector_3" d="M107.087 8.88193C108.42 8.88193 109.5 7.80175 109.5 6.46929C109.5 5.13682 108.42 4.05664 107.087 4.05664C105.755 4.05664 104.675 5.13682 104.675 6.46929C104.675 7.80175 105.755 8.88193 107.087 8.88193Z" fill="#F1F3F9"/>
<path id="Vector_4" d="M19.7154 22.5821C21.0478 22.5821 22.128 21.5019 22.128 20.1695C22.128 18.837 21.0478 17.7568 19.7154 17.7568C18.3829 17.7568 17.3027 18.837 17.3027 20.1695C17.3027 21.5019 18.3829 22.5821 19.7154 22.5821Z" fill="#F1F3F9"/>
<path id="Vector_5" d="M4.98063 69.1116C7.45521 69.1116 9.46125 67.1056 9.46125 64.631C9.46125 62.1564 7.45521 60.1504 4.98063 60.1504C2.50604 60.1504 0.5 62.1564 0.5 64.631C0.5 67.1056 2.50604 69.1116 4.98063 69.1116Z" fill="#F1F3F9"/>
<g id="Group">
<g id="Group_2">
<path id="Vector_6" d="M73.7416 28.0966L86.925 75.4878C87.3558 77.125 86.408 78.7621 84.7708 79.193L38.3274 91.5147C36.6903 91.9455 35.0531 90.9977 34.6223 89.3605L18.4231 28.1828C17.9923 26.5456 18.9401 24.9085 20.5773 24.4776L54.182 15.6025L73.7416 28.0966Z" fill="white" stroke="#D6DCE8" stroke-width="1.87546" stroke-miterlimit="10"/>
</g>
<path id="Vector_7" d="M73.0523 58.0819L47.978 64.7167L45.2207 65.406L36.8626 67.6464C36.518 67.7325 36.2595 68.1633 36.4318 68.5942C36.518 69.025 36.9488 69.2835 37.2935 69.1973L45.6516 66.957L48.4089 66.2677L73.4831 59.6329C73.8278 59.5468 74.0863 59.1159 73.914 58.6851C73.8278 58.2543 73.397 57.9958 73.0523 58.0819Z" fill="#D6DCE8"/>
<path id="Vector_8" d="M71.4151 52.2224L62.1092 54.635L58.9211 55.4967L35.3978 61.7868C35.0531 61.873 34.7946 62.3038 34.967 62.7346C35.0531 63.1654 35.484 63.4239 35.8286 63.3378L59.4381 57.0477L62.6262 56.186L71.9321 53.7734C72.2768 53.6872 72.5353 53.2564 72.363 52.8255C72.1906 52.4809 71.7598 52.1362 71.4151 52.2224Z" fill="#D6DCE8"/>
<path id="Vector_9" d="M70.0369 46.2774L67.6243 46.8806L65.2116 47.4838L33.7611 55.8419C33.4164 55.928 33.1579 56.3589 33.3302 56.7897C33.4164 57.2205 33.8472 57.479 34.1919 57.3928L65.6425 49.0348L68.3136 48.3454L70.4677 47.7423C70.8124 47.6561 71.0709 47.2253 70.8986 46.7944C70.8124 46.4498 70.4677 46.1913 70.0369 46.2774Z" fill="#D6DCE8"/>
<path id="Vector_10" d="M55.4741 76.7804L53.7508 77.2112C53.4061 77.2974 52.9753 77.0389 52.8891 76.6081C52.803 76.1772 52.9753 75.7464 53.32 75.6602L55.0433 75.2294C55.388 75.1432 55.8188 75.4017 55.905 75.8326C55.9911 76.3496 55.8188 76.6942 55.4741 76.7804Z" fill="#D6DCE8"/>
<path id="Vector_11" d="M50.2185 78.1593L40.3094 80.7443C39.9647 80.8304 39.5339 80.5719 39.4477 80.1411C39.3616 79.7103 39.5339 79.2794 39.8786 79.1933L49.7876 76.6083C50.1323 76.5221 50.5631 76.7806 50.6493 77.2115C50.8216 77.6423 50.6493 78.0731 50.2185 78.1593Z" fill="#D6DCE8"/>
<path id="Vector_12" d="M68.8306 40.3318L60.9895 42.3997L59.0938 42.9167L32.2962 49.9823C31.9516 50.0685 31.6931 50.4993 31.8654 50.9302C31.9516 51.361 32.3824 51.6195 32.7271 51.5333L59.4385 44.5539L61.3341 44.0369L69.0891 41.9689C69.5199 41.8827 69.6922 41.4519 69.6061 40.9349C69.6061 40.5902 69.1752 40.2456 68.8306 40.3318Z" fill="#D6DCE8"/>
<path id="Vector_13" d="M50.3042 27.3213L28.0734 33.1806C27.5564 33.3529 27.0394 33.0083 26.8671 32.4913C26.6948 31.9743 27.0394 31.4573 27.5564 31.285L49.7872 25.4257C50.3042 25.2534 50.8212 25.598 50.9935 26.115C51.1659 26.632 50.8212 27.149 50.3042 27.3213Z" fill="#D6DCE8"/>
<path id="Vector_14" d="M38.0687 36.2823L29.5383 38.5226C29.0213 38.6949 28.5043 38.3503 28.3319 37.8333C28.1596 37.3163 28.5043 36.7993 29.0213 36.6269L37.4655 34.3866C37.9825 34.2143 38.4995 34.559 38.6718 35.076C38.8442 35.5929 38.4995 36.1099 38.0687 36.2823Z" fill="#D6DCE8"/>
<path id="Vector_15" d="M54.1816 15.6025L57.6283 28.6998C58.1453 30.5092 60.1271 31.6294 61.9366 31.1124L73.7413 28.0966" fill="#D6DCE8"/>
</g>
<g id="Group_3">
<g id="Group_4">
<path id="Vector_16" d="M108.552 41.4523L100.625 90.0499C100.366 91.687 98.7289 92.8072 97.0917 92.4625L49.8728 84.1906C48.2357 83.9321 47.1155 82.295 47.374 80.6578L58.3171 18.3599C58.5756 16.7227 60.2127 15.6026 61.8499 15.9472L96.1439 21.9788L108.552 41.4523Z" fill="white" stroke="#D6DCE8" stroke-width="1.87546" stroke-miterlimit="10"/>
</g>
<path id="Vector_17" d="M95.3682 68.422L69.8631 63.9414L67.1058 63.4244L58.5754 61.9596C58.2307 61.8734 57.7999 62.2181 57.7999 62.6489C57.7137 63.0797 57.9722 63.5106 58.3169 63.5967L66.8473 65.0616L69.6046 65.5786L95.1097 70.0592C95.4544 70.1453 95.8852 69.8007 95.8852 69.3699C95.9714 68.939 95.7991 68.5082 95.3682 68.422Z" fill="#D6DCE8"/>
<path id="Vector_18" d="M96.4022 62.4767L86.9239 60.8396L83.7358 60.2364L59.6955 56.0143C59.3508 55.9281 58.92 56.2728 58.92 56.7036C58.8339 57.1344 59.0924 57.5653 59.437 57.6514L83.4773 61.8735L86.6654 62.4767L96.1437 64.1139C96.4883 64.2 96.9192 63.8554 96.9192 63.4245C97.0053 62.9937 96.7468 62.5629 96.4022 62.4767Z" fill="#D6DCE8"/>
<path id="Vector_19" d="M97.6091 56.4455L95.1103 56.0146L92.6115 55.5838L60.5578 49.983C60.2131 49.8969 59.7823 50.2415 59.7823 50.6723C59.6962 51.1032 59.9547 51.534 60.2993 51.6202L92.353 57.221L95.1103 57.7379L97.2645 58.0826C97.6091 58.1688 98.04 57.8241 98.04 57.3933C98.2123 56.9625 98.04 56.5316 97.6091 56.4455Z" fill="#D6DCE8"/>
<path id="Vector_20" d="M71.5871 78.073L69.8638 77.8145C69.5191 77.7283 69.2606 77.2975 69.3468 76.8667C69.4329 76.4359 69.7776 76.0912 70.1223 76.1774L71.8456 76.4359C72.1903 76.522 72.4488 76.9528 72.3626 77.3837C72.2764 77.9007 71.9318 78.073 71.5871 78.073Z" fill="#D6DCE8"/>
<path id="Vector_21" d="M66.3309 77.1257L56.2495 75.4024C55.9049 75.3162 55.6464 74.8854 55.7325 74.4546C55.8187 74.0237 56.1634 73.6791 56.508 73.7652L66.5894 75.4886C66.9341 75.5747 67.1926 76.0056 67.1064 76.4364C67.0203 76.9534 66.6756 77.2119 66.3309 77.1257Z" fill="#D6DCE8"/>
<path id="Vector_22" d="M98.9868 50.5863L90.9734 49.2077L88.9915 48.863L61.677 44.0377C61.3323 43.9515 60.9015 44.2962 60.9015 44.727C60.8153 45.1579 61.0738 45.5887 61.4185 45.6749L88.7331 50.5001L90.7149 50.8448L98.6421 52.2235C99.073 52.3096 99.4176 51.965 99.5038 51.5341C99.59 51.1033 99.3315 50.6725 98.9868 50.5863Z" fill="#D6DCE8"/>
<path id="Vector_23" d="M87.7003 31.0268L65.0387 27.0631C64.5217 26.977 64.177 26.46 64.2632 25.943C64.3494 25.426 64.8664 25.0813 65.3834 25.1675L88.045 29.1311C88.562 29.2173 88.9066 29.7343 88.8205 30.2513C88.7343 30.6821 88.2173 31.1129 87.7003 31.0268Z" fill="#D6DCE8"/>
<path id="Vector_24" d="M72.7932 33.9559L64.0904 32.4049C63.5735 32.3188 63.2288 31.8018 63.315 31.2848C63.4011 30.7678 63.9181 30.4231 64.4351 30.5093L73.0517 32.0603C73.5687 32.1464 73.9134 32.6634 73.8272 33.1804C73.741 33.6974 73.224 34.0421 72.7932 33.9559Z" fill="#D6DCE8"/>
<path id="Vector_25" d="M96.0582 21.9785L93.7317 35.3342C93.387 37.2299 94.7657 39.0394 96.6613 39.384L108.552 41.452" fill="#D6DCE8"/>
</g>
<path id="Vector_26" d="M76.0675 85.4827C86.6797 85.4827 95.2825 76.8799 95.2825 66.2677C95.2825 55.6556 86.6797 47.0527 76.0675 47.0527C65.4554 47.0527 56.8525 55.6556 56.8525 66.2677C56.8525 76.8799 65.4554 85.4827 76.0675 85.4827Z" fill="white"/>
<path id="Vector_27" d="M103.934 95.9443C103.189 95.9443 102.443 95.6459 101.846 94.9747L89.3905 82.5191L88.9429 82.8174C84.9154 85.8008 80.2166 87.3671 75.4432 87.3671C69.7002 87.3671 63.9572 85.055 59.7059 81.0274C55.2308 76.7761 52.7695 71.0331 52.7695 64.768C52.7695 52.3124 62.913 42.1689 75.3686 42.1689C83.8712 42.1689 91.3296 46.644 95.3572 54.2516C99.3102 61.7846 98.7881 70.5856 93.9401 77.6711L93.6418 78.1186L106.172 90.6488C107.44 91.9167 107.142 93.1847 106.918 93.8559C106.321 95.0493 105.128 95.9443 103.934 95.9443ZM75.3686 48.3594C66.2693 48.3594 58.96 55.7433 58.96 64.768C58.96 75.0606 67.3881 81.2511 75.5923 81.2511C80.5895 81.2511 85.1391 79.0136 88.3463 74.9861C92.2992 70.0635 92.9705 63.4255 90.2109 57.6825C87.3767 51.9395 81.7083 48.3594 75.3686 48.3594Z" fill="#D6DCE8" stroke="#AAB2C5" stroke-width="1.87546" stroke-miterlimit="10"/>
<g id="Group_5">
<path id="Vector_28" d="M74.258 69.3701C74.1718 69.0254 74.1718 68.6807 74.1718 68.2499C74.1718 66.7851 74.775 65.4926 76.3259 64.3724L77.6184 63.4246C78.3939 62.8215 78.7386 62.1321 78.7386 61.2705C78.7386 60.0642 77.8769 58.8578 76.0674 58.8578C74.1718 58.8578 73.3101 60.4088 73.3101 61.8736C73.3101 62.2183 73.3101 62.4768 73.3963 62.7353L69.9497 62.6491C69.8635 62.3045 69.7773 61.8736 69.7773 61.4428C69.7773 58.5132 71.9315 55.7559 75.9813 55.7559C80.1172 55.7559 82.3576 58.427 82.3576 61.0981C82.3576 63.2523 81.2374 64.7171 79.6864 65.8373L78.5663 66.6128C77.6184 67.3021 77.1014 68.1637 77.1014 69.1977V69.3701H74.258ZM75.7228 71.0934C76.9291 71.0934 77.8769 72.0412 77.8769 73.2475C77.8769 74.4539 76.9291 75.4017 75.7228 75.4017C74.5165 75.4017 73.5686 74.4539 73.5686 73.2475C73.6548 72.1274 74.5165 71.0934 75.7228 71.0934Z" fill="#B2C0D1"/>
</g>
</g>
</g>
</svg>
