<svg width="144" height="144" viewBox="0 0 144 144" fill="none" xmlns="http://www.w3.org/2000/svg">
<path fill-rule="evenodd" clip-rule="evenodd" d="M109.8 113.24C106.72 110.627 102.08 110.627 99 113.24C95.9204 115.853 91.2796 115.853 88.2 113.24C85.1204 110.627 80.4796 110.627 77.4 113.24C74.3204 115.853 69.6796 115.853 66.6 113.24C63.5204 110.627 58.8796 110.627 55.8 113.24C52.7204 115.853 48.0796 115.853 45 113.24C41.9204 110.627 37.2796 110.627 34.2 113.24C32.1076 115.016 28.8 113.598 28.8 110.925V33.0748C28.8 30.4024 32.1076 28.9844 34.2 30.7599C37.2796 33.3731 41.9204 33.3731 45 30.7599C48.0796 28.1467 52.7204 28.1467 55.8 30.7599C58.8796 33.3731 63.5204 33.3731 66.6 30.7599C69.6796 28.1467 74.3204 28.1467 77.4 30.7599C80.4796 33.3731 85.1204 33.3731 88.2 30.7599C91.2796 28.1467 95.9204 28.1467 99 30.7599C102.08 33.3731 106.72 33.3731 109.8 30.7599C111.892 28.9844 115.2 30.4024 115.2 33.0748V110.925C115.2 113.598 111.892 115.016 109.8 113.24ZM46.8 72C46.8 70.0118 48.4118 68.4 50.4 68.4H93.6C95.5882 68.4 97.2 70.0118 97.2 72C97.2 73.9882 95.5882 75.6 93.6 75.6H50.4C48.4118 75.6 46.8 73.9882 46.8 72ZM50.4 51.6C48.4118 51.6 46.8 53.2118 46.8 55.2C46.8 57.1882 48.4118 58.8 50.4 58.8H93.6C95.5882 58.8 97.2 57.1882 97.2 55.2C97.2 53.2118 95.5882 51.6 93.6 51.6H50.4ZM46.8 88.8C46.8 86.8118 48.4118 85.2 50.4 85.2H93.6C95.5882 85.2 97.2 86.8118 97.2 88.8C97.2 90.7882 95.5882 92.4 93.6 92.4H50.4C48.4118 92.4 46.8 90.7882 46.8 88.8Z" fill="#D5D5D5"/>
</svg>
