<svg width="115" height="52" viewBox="0 0 115 52" fill="none" xmlns="http://www.w3.org/2000/svg">
<path fill-rule="evenodd" clip-rule="evenodd" d="M115 26.1544L108.235 26.1865L102.831 34.1805C101.563 33.5168 98.4448 27.9638 96.9463 26.1863L90.207 26.1747C90.8186 27.3137 91.5097 27.7166 92.2534 28.472L92.3631 44.4972L96.9385 44.5169L97.0282 34.0981C98.0118 35.2697 98.8302 36.6089 99.7352 37.9076C100.584 39.1254 101.52 40.8238 102.453 41.5888C103.993 41.0104 106.519 35.3 108.155 34.1589L108.314 44.5171L112.852 44.4656L112.976 28.5443L115 26.1544Z" fill="#F62559"/>
<path fill-rule="evenodd" clip-rule="evenodd" d="M59.5934 22.7732C61.4518 22.2941 94.0592 22.5843 98.8736 22.5843C109.812 22.5843 108.965 21.5763 109.401 25.1073L112.788 25.0416C113.542 17.0219 108.295 18.7828 101.627 18.7836L66.6575 18.7821C60.0236 18.7821 55.1127 17.0575 55.7873 25.073L59.1643 25.0876L59.5934 22.7732Z" fill="#F62559"/>
<path fill-rule="evenodd" clip-rule="evenodd" d="M66.9327 51.836H101.902C108.057 51.836 113.869 53.4251 112.761 45.5794L109.432 45.5379L109.017 47.8774C107.251 48.278 61.0302 48.2333 59.4676 47.8689L59.1389 45.5428L55.8058 45.6284C54.8789 53.5896 60.5364 51.836 66.9327 51.836Z" fill="#F62559"/>
<path fill-rule="evenodd" clip-rule="evenodd" d="M40.5309 34.8396L40.438 30.1389C43.0837 30.0413 47.8646 29.224 47.9139 32.4055C47.9655 35.7387 43.3498 34.8286 40.5309 34.8396ZM48.1713 37.9527C50.1954 36.8614 51.7726 36.3432 52.4228 33.8765C53.1181 31.2395 51.7983 29.0352 50.4554 27.9211C48.398 26.2139 46.9751 26.1571 43.803 26.1714C41.1497 26.1835 38.4177 26.0944 35.7604 26.1899L35.7873 44.5153L40.4428 44.3753L40.4549 38.4798L43.2516 38.5444C46.5456 44.1778 47.2823 44.6973 52.569 44.4727L52.5667 40.2249C50.1923 40.0676 48.7062 40.0195 48.1713 37.9527Z" fill="#F62559"/>
<path fill-rule="evenodd" clip-rule="evenodd" d="M71.2248 26.2002C70.8076 28.1118 71.0949 34.208 71.094 36.5656C71.0926 40.4422 71.5093 42.223 74.1497 43.7302C78.2147 46.0509 87.0123 45.2513 87.0211 38.5075C87.0266 34.3924 87.1604 30.2659 86.8946 26.1588L82.4023 26.1529L82.35 37.6887C82.2839 42.3701 77.1118 40.6164 76.5636 40.1591C75.6408 39.3895 75.8207 37.8116 75.8205 36.5656L75.6585 26.1514L71.2248 26.2002Z" fill="#F62559"/>
<path fill-rule="evenodd" clip-rule="evenodd" d="M5.06149 30.2527C7.64233 29.7039 12.3186 29.486 12.1034 32.6542C11.9219 35.328 7.69222 35.2049 5.10193 34.728L5.06149 30.2527ZM5.11104 38.7518C8.68301 38.7698 11.4527 39.1556 14.0812 37.4286C15.832 36.2783 17.6892 33.5823 16.4059 30.3176C14.3541 25.0982 6.78797 25.9355 0.381409 26.1835L0.447877 44.5187L5.07893 44.4244L5.11104 38.7518Z" fill="#F62559"/>
<path fill-rule="evenodd" clip-rule="evenodd" d="M22.189 38.8581C22.4339 37.709 22.7276 37.0753 23.1129 35.9629L23.8603 33.9381C24.1458 33.4616 24.0272 33.6979 24.3222 33.4085L26.1514 38.8089L22.189 38.8581ZM20.8378 26.1828C21.4536 28.7655 22.0541 28.1444 20.9972 30.7724C19.7736 33.815 16.3028 42.4439 15.7518 44.6224L20.0574 44.5624L20.9476 42.1519L27.4647 42.2285L28.3828 44.6062L32.567 44.6308C32.1967 42.6962 25.9702 26.866 25.5237 26.154L20.8378 26.1828Z" fill="#F62559"/>
<path fill-rule="evenodd" clip-rule="evenodd" d="M60.4405 30.2184L68.2591 30.1279L68.1337 26.1657L55.7323 26.2273L55.7823 44.5195L60.4334 44.4L60.4582 37.7728L65.6439 37.7309L65.677 33.8227L60.4413 33.6499L60.4405 30.2184Z" fill="#F62559"/>
<path fill-rule="evenodd" clip-rule="evenodd" d="M96.2454 3.55505C99.3803 2.29641 100.721 7.26508 97.9722 8.20729C96.2716 8.79016 95.0044 7.87472 94.6326 6.69845C94.0823 4.95774 95.033 4.04174 96.2454 3.55505ZM91.5067 0.468412C89.5956 1.24237 90.0546 2.84499 90.0524 5.2179C90.0509 6.93267 89.7077 10.0384 90.7168 10.9437C91.5916 11.7284 101.116 11.83 102.673 11.2737C104.369 10.6677 103.96 8.15051 103.959 6.32759C103.959 4.50349 104.371 1.53686 103.115 0.666614C102.293 0.0974338 92.5623 0.040998 91.5067 0.468412Z" fill="#F62559"/>
<path fill-rule="evenodd" clip-rule="evenodd" d="M31.7567 14.4837L34.8681 14.4895C35.3929 12.4183 33.9354 6.95874 36.4247 6.67399C39.0112 6.37804 38.0744 12.4823 38.0706 14.4112L41.3604 14.4749C41.3842 6.54524 42.2426 2.66818 35.026 4.92587L35.0102 0L31.7986 0.0154152L31.7567 14.4837Z" fill="#F62559"/>
<path fill-rule="evenodd" clip-rule="evenodd" d="M43.5161 14.419L46.8348 14.4857C46.8297 13.0575 46.6187 11.5679 47.1817 10.5833L49.7859 14.4877L53.4829 14.464L49.6388 8.57282C50.1959 7.90512 50.6309 7.27916 51.261 6.60863C52.1665 5.64465 52.4483 5.54552 53.0531 4.29345L49.2462 4.31971C48.7382 5.37058 47.6687 6.83132 46.8998 7.7029L46.8079 0.0165752L43.5717 0.00210571L43.5161 14.419Z" fill="#F62559"/>
<path fill-rule="evenodd" clip-rule="evenodd" d="M87.4372 17.9839L106.595 17.9695L106.56 13.8303L87.4354 13.9468L87.4372 17.9839Z" fill="#F62559"/>
<path fill-rule="evenodd" clip-rule="evenodd" d="M68.0068 5.17522C67.3167 4.40149 68.3648 4.206 64.7664 4.39764L64.7917 14.396L68.0752 14.4843C68.0805 12.6201 68.0089 10.6257 68.0774 8.81372C68.1488 6.92317 69.629 5.80797 70.8702 7.37424C71.6941 9.28756 70.8173 12.2379 71.2637 14.4265L74.242 14.5005C74.6762 13.1043 74.5822 7.36172 74.0314 6.10703C73.0407 3.85084 69.7523 3.43668 68.0068 5.17522Z" fill="#F62559"/>
<path fill-rule="evenodd" clip-rule="evenodd" d="M15.3784 6.60633L16.2239 6.2924L17.1906 6.50018C18.9544 8.66364 18.9961 12.21 15.5293 12.21C14.3238 11.8846 13.9762 8.2183 15.3784 6.60633ZM15.0888 4.1604C8.6793 5.59554 10.2052 16.0104 17.5141 14.5231C23.9288 13.2177 22.4105 2.52099 15.0888 4.1604Z" fill="#F62559"/>
<path fill-rule="evenodd" clip-rule="evenodd" d="M56.8741 8.14109C56.9414 5.81527 60.1244 5.45932 60.023 8.1821L56.8741 8.14109ZM62.6309 14.084L62.2642 11.897C59.6863 12.2801 57.5492 12.9337 56.7681 10.4661L63.0208 10.3758C64.6247 3.80778 56.782 2.05777 54.2994 6.63726C52.7023 9.58324 53.0388 16.418 62.6309 14.084Z" fill="#F62559"/>
<path fill-rule="evenodd" clip-rule="evenodd" d="M6.10352e-05 3.24618L3.61133 3.29242L3.64996 14.4048L6.9039 14.4752L6.90192 3.29766L10.5144 3.27701L10.5173 0.575653L0.0877219 0.583056L6.10352e-05 3.24618Z" fill="#F62559"/>
<path fill-rule="evenodd" clip-rule="evenodd" d="M77.2281 2.50355L76.9679 4.21933L75.6556 4.66304L75.6619 6.32767L77.032 6.88238C77.123 12.0867 76.2049 15.4302 82.5093 14.4125L82.4416 12.0685L80.4847 11.9065L80.2807 6.61683L82.6469 6.60976L82.6617 4.33771L80.3134 4.23992L80.2679 1.802L77.2281 2.50355Z" fill="#F62559"/>
<path fill-rule="evenodd" clip-rule="evenodd" d="M26.9693 11.8758C25.7547 12.7548 24.3031 12.1145 23.1778 11.6949L22.5224 14.0092C25.3218 14.7938 29.0481 15.0334 30.0268 12.4269C30.5761 10.9641 29.8508 9.6133 29.0339 9.00015C28.4548 8.56539 27.92 8.39307 27.3793 8.18318C26.129 7.6976 26.1592 7.87231 25.8844 6.7669C27.2051 6.01003 27.7347 6.48598 29.2461 6.89292L29.81 4.67118C23.5356 2.4568 20.8948 7.58394 24.1991 9.70325C25.5331 10.5587 26.8974 10.3029 26.9693 11.8758Z" fill="#F62559"/>
<path fill-rule="evenodd" clip-rule="evenodd" d="M91.7143 13.3657C93.516 13.3657 102.66 13.7568 103.863 12.9855L103.921 12.0398C101.767 11.8943 91.2029 11.4964 90.4257 11.9874C89.1152 12.8154 90.6066 13.3657 91.7143 13.3657Z" fill="#F62559"/>
</svg>
