<svg width="28" height="28" viewBox="0 0 28 28" fill="none" xmlns="http://www.w3.org/2000/svg">
<path d="M4.66699 13.9999C4.66699 10.48 4.66699 8.72014 5.76046 7.62667C6.85393 6.5332 8.61384 6.5332 12.1337 6.5332H15.867C19.3868 6.5332 21.1467 6.5332 22.2402 7.62667C23.3337 8.72014 23.3337 10.48 23.3337 13.9999C23.3337 17.5197 23.3337 19.2796 22.2402 20.3731C21.1467 21.4665 19.3868 21.4665 15.867 21.4665H12.1337C8.61384 21.4665 6.85393 21.4665 5.76046 20.3731C4.66699 19.2796 4.66699 17.5197 4.66699 13.9999Z" stroke="#9E9EA5" stroke-width="1.5"/>
<path d="M8.40039 10.2666L10.4154 11.9457C12.1296 13.3742 12.9867 14.0885 14.0004 14.0885C15.0141 14.0885 15.8712 13.3742 17.5854 11.9457L19.6004 10.2666" stroke="#9E9EA5" stroke-width="1.5" stroke-linecap="round"/>
</svg>
