<svg width="93" height="42" viewBox="0 0 93 42" fill="none" xmlns="http://www.w3.org/2000/svg">
<path fill-rule="evenodd" clip-rule="evenodd" d="M93 21.1248L87.5295 21.1506L83.159 27.6073C82.134 27.0713 79.6119 22.5861 78.4001 21.1505L72.9501 21.1411C73.4447 22.0611 74.0035 22.3865 74.605 22.9966L74.6937 35.9401L78.3938 35.956L78.4663 27.5408C79.2617 28.4871 79.9236 29.5688 80.6555 30.6177C81.3418 31.6013 82.099 32.9731 82.8533 33.591C84.0989 33.1238 86.1416 28.5116 87.4643 27.5899L87.5933 35.9561L91.2631 35.9146L91.3629 23.055L93 21.1248Z" fill="white"/>
<path fill-rule="evenodd" clip-rule="evenodd" d="M48.1929 18.3938C49.6958 18.0067 76.0652 18.2412 79.9586 18.2412C88.8041 18.2412 88.1198 17.427 88.4717 20.279L91.2109 20.2259C91.821 13.7484 87.5776 15.1707 82.1854 15.1714L53.9056 15.1701C48.5408 15.1701 44.5693 13.7773 45.1149 20.2513L47.8459 20.2631L48.1929 18.3938Z" fill="white"/>
<path fill-rule="evenodd" clip-rule="evenodd" d="M54.1282 41.8676H82.4081C87.3854 41.8676 92.0856 43.151 91.1891 36.8141L88.4975 36.7806L88.1619 38.6702C86.7336 38.9937 49.3549 38.9577 48.0912 38.6634L47.8254 36.7846L45.1299 36.8537C44.3803 43.2839 48.9555 41.8676 54.1282 41.8676Z" fill="white"/>
<path fill-rule="evenodd" clip-rule="evenodd" d="M32.7772 28.1397L32.702 24.343C34.8416 24.2642 38.7079 23.604 38.7478 26.1737C38.7895 28.8659 35.0568 28.1308 32.7772 28.1397ZM38.9559 30.6541C40.5928 29.7727 41.8682 29.3541 42.3941 27.3618C42.9564 25.2319 41.8891 23.4515 40.8031 22.5517C39.1393 21.1728 37.9886 21.127 35.4233 21.1385C33.2776 21.1482 31.0682 21.0763 28.9193 21.1534L28.941 35.9547L32.7059 35.8416L32.7157 31.0799L34.9774 31.132C37.6413 35.6821 38.237 36.1017 42.5124 35.9203L42.5105 32.4893C40.5903 32.3623 39.3885 32.3234 38.9559 30.6541Z" fill="white"/>
<path fill-rule="evenodd" clip-rule="evenodd" d="M57.5992 21.1617C57.2619 22.7057 57.4942 27.6295 57.4935 29.5338C57.4923 32.6649 57.8293 34.1031 59.9645 35.3206C63.2519 37.195 70.3665 36.5491 70.3737 31.1022C70.378 27.7784 70.4863 24.4456 70.2713 21.1283L66.6384 21.1235L66.5962 30.4408C66.5427 34.222 62.36 32.8056 61.9167 32.4362C61.1704 31.8146 61.3159 30.5401 61.3158 29.5338L61.1847 21.1223L57.5992 21.1617Z" fill="white"/>
<path fill-rule="evenodd" clip-rule="evenodd" d="M4.09317 24.4349C6.18029 23.9916 9.96196 23.8157 9.78794 26.3746C9.64113 28.5342 6.22063 28.4347 4.12588 28.0496L4.09317 24.4349ZM4.13324 31.2996C7.02188 31.3141 9.26169 31.6257 11.3874 30.2308C12.8032 29.3018 14.3052 27.1242 13.2673 24.4873C11.6081 20.2717 5.48937 20.9479 0.308411 21.1482L0.362164 35.9574L4.10727 35.8813L4.13324 31.2996Z" fill="white"/>
<path fill-rule="evenodd" clip-rule="evenodd" d="M17.9442 31.3854C18.1422 30.4573 18.3797 29.9454 18.6913 29.0469L19.2958 27.4115C19.5266 27.0267 19.4307 27.2175 19.6693 26.9838L21.1485 31.3456L17.9442 31.3854ZM16.8515 21.1476C17.3494 23.2336 17.8351 22.732 16.9804 24.8546C15.9909 27.3121 13.184 34.2816 12.7385 36.0412L16.2204 35.9927L16.9402 34.0458L22.2106 34.1076L22.9531 36.0281L26.3368 36.0479C26.0374 34.4854 21.002 21.6994 20.6409 21.1244L16.8515 21.1476Z" fill="white"/>
<path fill-rule="evenodd" clip-rule="evenodd" d="M48.878 24.4072L55.2008 24.3341L55.0995 21.1339L45.0705 21.1836L45.1109 35.9581L48.8722 35.8615L48.8923 30.5088L53.086 30.475L53.1127 27.3183L48.8786 27.1788L48.878 24.4072Z" fill="white"/>
<path fill-rule="evenodd" clip-rule="evenodd" d="M77.8332 2.87141C80.3684 1.85481 81.4528 5.86797 79.2297 6.62899C77.8544 7.09977 76.8297 6.36037 76.5289 5.41031C76.0839 4.00435 76.8528 3.2645 77.8332 2.87141ZM74.0011 0.378354C72.4555 1.00347 72.8267 2.2979 72.825 4.21448C72.8237 5.59949 72.5462 8.10795 73.3623 8.83917C74.0697 9.47296 81.7724 9.55505 83.0314 9.10567C84.4025 8.61628 84.0716 6.58313 84.0714 5.11076C84.0713 3.63746 84.4047 1.24133 83.3887 0.53844C82.7241 0.0787177 74.8547 0.0331349 74.0011 0.378354Z" fill="white"/>
<path fill-rule="evenodd" clip-rule="evenodd" d="M25.6815 11.6983L28.1976 11.703C28.622 10.0302 27.4434 5.62052 29.4565 5.39053C31.5482 5.1515 30.7906 10.0819 30.7875 11.6398L33.4479 11.6912C33.4672 5.28654 34.1614 2.15507 28.3254 3.97859L28.3126 0L25.7153 0.0124508L25.6815 11.6983Z" fill="white"/>
<path fill-rule="evenodd" clip-rule="evenodd" d="M35.1913 11.6461L37.8751 11.7C37.8709 10.5464 37.7003 9.3433 38.1556 8.54803L40.2616 11.7016L43.2514 11.6825L40.1427 6.92421C40.5932 6.38491 40.945 5.87933 41.4545 5.33775C42.1869 4.55915 42.4147 4.47908 42.9038 3.46779L39.8252 3.48901C39.4143 4.33778 38.5494 5.51761 37.9277 6.22158L37.8533 0.0133959L35.2362 0.00170898L35.1913 11.6461Z" fill="white"/>
<path fill-rule="evenodd" clip-rule="evenodd" d="M70.7101 14.5255L86.2026 14.5138L86.1742 11.1707L70.7087 11.2647L70.7101 14.5255Z" fill="white"/>
<path fill-rule="evenodd" clip-rule="evenodd" d="M54.9968 4.17996C54.4387 3.55502 55.2863 3.39713 52.3763 3.55192L52.3967 11.6275L55.0521 11.6988C55.0564 10.1932 54.9985 8.58225 55.0539 7.11875C55.1117 5.59176 56.3087 4.69102 57.3124 5.95609C57.9787 7.50146 57.2697 9.88441 57.6306 11.6522L60.0392 11.7119C60.3903 10.5842 60.3143 5.94598 59.8689 4.93257C59.0677 3.11027 56.4084 2.77575 54.9968 4.17996Z" fill="white"/>
<path fill-rule="evenodd" clip-rule="evenodd" d="M12.4365 5.33585L13.1202 5.0823L13.902 5.25012C15.3283 6.99752 15.362 9.86191 12.5585 9.86191C11.5836 9.59905 11.3025 6.63783 12.4365 5.33585ZM12.2023 3.3603C7.01891 4.51945 8.25288 12.9314 14.1636 11.7302C19.3511 10.6758 18.1233 2.03616 12.2023 3.3603Z" fill="white"/>
<path fill-rule="evenodd" clip-rule="evenodd" d="M45.9938 6.57551C46.0482 4.69697 48.6223 4.40947 48.5403 6.60864L45.9938 6.57551ZM50.6493 11.3756L50.3528 9.60917C48.268 9.9186 46.5398 10.4465 45.9081 8.45338L50.9646 8.38051C52.2617 3.07553 45.9193 1.66206 43.9117 5.36089C42.6201 7.74033 42.8923 13.2607 50.6493 11.3756Z" fill="white"/>
<path fill-rule="evenodd" clip-rule="evenodd" d="M6.10352e-05 2.62193L2.92048 2.65928L2.95172 11.6346L5.58317 11.6915L5.58156 2.66351L8.50293 2.64683L8.5053 0.464966L0.070952 0.470945L6.10352e-05 2.62193Z" fill="white"/>
<path fill-rule="evenodd" clip-rule="evenodd" d="M62.454 2.02208L62.2435 3.4079L61.1823 3.76628L61.1874 5.11079L62.2954 5.55883C62.369 9.76228 61.6266 12.4629 66.7249 11.6409L66.6702 9.74758L65.0876 9.61681L64.9226 5.34435L66.8361 5.33863L66.8481 3.50352L64.9491 3.42453L64.9123 1.45544L62.454 2.02208Z" fill="white"/>
<path fill-rule="evenodd" clip-rule="evenodd" d="M21.81 9.59199C20.8277 10.302 19.6538 9.78481 18.7438 9.44588L18.2137 11.3152C20.4776 11.9488 23.491 12.1424 24.2825 10.0371C24.7267 8.8556 24.1402 7.7646 23.4795 7.26937C23.0112 6.91821 22.5787 6.77903 22.1415 6.6095C21.1304 6.2173 21.1548 6.35842 20.9326 5.46558C22.0006 4.85427 22.4289 5.23869 23.6512 5.56737L24.1072 3.77289C19.0331 1.98435 16.8975 6.1255 19.5697 7.83726C20.6485 8.52819 21.7518 8.32157 21.81 9.59199Z" fill="white"/>
<path fill-rule="evenodd" clip-rule="evenodd" d="M74.169 10.7954C75.626 10.7954 83.0207 11.1113 83.9933 10.4883L84.0404 9.72451C82.2986 9.607 73.7554 9.28556 73.1269 9.68216C72.0671 10.3509 73.2732 10.7954 74.169 10.7954Z" fill="white"/>
</svg>
