<svg width="117" height="48" viewBox="0 0 117 48" fill="none" xmlns="http://www.w3.org/2000/svg">
<g id="logo">
<g id="&#208;&#161;&#208;&#187;&#208;&#190;&#208;&#185;_x0020_1">
<g id="_1731783666016">
<path id="Vector" fill-rule="evenodd" clip-rule="evenodd" d="M109.63 24.1367L103.615 24.1651L98.8094 31.2367C97.6823 30.6495 94.9091 25.7373 93.5766 24.1649L87.584 24.1546C88.1278 25.1622 88.7424 25.5186 89.4037 26.1869L89.5012 40.363L93.5697 40.3804L93.6495 31.1638C94.5241 32.2002 95.2518 33.3849 96.0566 34.5338C96.8112 35.611 97.6438 37.1134 98.4732 37.7902C99.8429 37.2785 102.089 32.227 103.543 31.2176L103.685 40.3806L107.72 40.3351L107.83 26.2508L109.63 24.1367Z" fill="#383838"/>
<path id="Vector_2" fill-rule="evenodd" clip-rule="evenodd" d="M60.3614 21.1455C62.014 20.7216 91.009 20.9784 95.2901 20.9784C105.016 20.9784 104.264 20.0867 104.651 23.2102L107.663 23.1521C108.334 16.0578 103.668 17.6155 97.7386 17.6162L66.643 17.6149C60.744 17.6149 56.3771 16.0893 56.977 23.1799L59.9799 23.1929L60.3614 21.1455Z" fill="#383838"/>
<path id="Vector_3" fill-rule="evenodd" clip-rule="evenodd" d="M66.8874 46.8552H97.9831C103.456 46.8552 108.624 48.2608 107.638 41.3204L104.679 41.2837L104.31 43.3533C102.739 43.7076 61.6388 43.6681 60.2493 43.3458L59.9571 41.2881L56.9932 41.3638C56.169 48.4063 61.1997 46.8552 66.8874 46.8552Z" fill="#383838"/>
<path id="Vector_4" fill-rule="evenodd" clip-rule="evenodd" d="M43.411 31.8196L43.3283 27.6613C45.6809 27.575 49.9322 26.852 49.976 29.6664C50.0218 32.615 45.9175 31.8099 43.411 31.8196ZM50.2049 34.5735C52.0047 33.6082 53.4072 33.1497 53.9854 30.9677C54.6037 28.6349 53.4301 26.685 52.236 25.6994C50.4065 24.1892 49.1412 24.139 46.3205 24.1516C43.9611 24.1623 41.5318 24.0835 39.1689 24.168L39.1928 40.3788L43.3326 40.255L43.3433 35.0398L45.8302 35.0969C48.7593 40.0803 49.4144 40.5399 54.1154 40.3412L54.1134 36.5835C52.002 36.4444 50.6805 36.4018 50.2049 34.5735Z" fill="#383838"/>
<path id="Vector_5" fill-rule="evenodd" clip-rule="evenodd" d="M70.7042 24.177C70.3333 25.868 70.5887 31.2608 70.5879 33.3464C70.5867 36.7757 70.9572 38.351 73.3051 39.6843C76.9198 41.7372 84.7427 41.0298 84.7506 35.0642C84.7554 31.4239 84.8744 27.7736 84.638 24.1404L80.6435 24.1352L80.597 34.3399C80.5382 38.4811 75.9391 36.9298 75.4516 36.5253C74.631 35.8444 74.791 34.4486 74.7908 33.3464L74.6467 24.1338L70.7042 24.177Z" fill="#383838"/>
<path id="Vector_6" fill-rule="evenodd" clip-rule="evenodd" d="M11.8706 27.762C14.1655 27.2766 18.3237 27.0838 18.1324 29.8865C17.9709 32.2517 14.2099 32.1428 11.9065 31.721L11.8706 27.762ZM11.9146 35.2805C15.0909 35.2965 17.5537 35.6377 19.891 34.11C21.4479 33.0924 23.0994 30.7074 21.9582 27.8194C20.1337 23.2023 13.4058 23.943 7.70898 24.1624L7.76809 40.382L11.8861 40.2986L11.9146 35.2805Z" fill="#383838"/>
<path id="Vector_7" fill-rule="evenodd" clip-rule="evenodd" d="M27.101 35.3745C27.3188 34.3579 27.5799 33.7973 27.9225 32.8133L28.5871 31.0221C28.841 30.6007 28.7355 30.8096 28.9979 30.5536L30.6244 35.3309L27.101 35.3745ZM25.8995 24.1617C26.447 26.4464 26.981 25.8969 26.0413 28.2217C24.9532 30.9132 21.8668 38.5465 21.377 40.4736L25.2056 40.4206L25.9971 38.2882L31.7922 38.356L32.6087 40.4593L36.3292 40.4811C36 38.7697 30.4633 24.766 30.0663 24.1362L25.8995 24.1617Z" fill="#383838"/>
<path id="Vector_8" fill-rule="evenodd" clip-rule="evenodd" d="M61.1144 27.7316L68.0667 27.6515L67.9553 24.1465L56.9277 24.2009L56.9722 40.3826L61.108 40.2768L61.1301 34.4143L65.7413 34.3772L65.7707 30.9199L61.115 30.7672L61.1144 27.7316Z" fill="#383838"/>
<path id="Vector_9" fill-rule="evenodd" clip-rule="evenodd" d="M92.9535 4.14484C95.7412 3.03142 96.9335 7.42679 94.489 8.26028C92.9768 8.7759 91.85 7.96609 91.5194 6.92554C91.03 5.38568 91.8755 4.57537 92.9535 4.14484ZM88.7398 1.41435C87.0404 2.099 87.4485 3.51671 87.4466 5.61582C87.4452 7.13274 87.1401 9.8801 88.0374 10.681C88.8153 11.3751 97.2849 11.465 98.6693 10.9728C100.177 10.4368 99.8131 8.21006 99.8129 6.59747C99.8127 4.98385 100.179 2.35952 99.0621 1.58969C98.3314 1.08618 89.6785 1.03626 88.7398 1.41435Z" fill="#383838"/>
<path id="Vector_10" fill-rule="evenodd" clip-rule="evenodd" d="M35.6084 13.8125L38.3751 13.8176C38.8418 11.9854 37.5458 7.15581 39.7593 6.90391C42.0592 6.64211 41.2263 12.0421 41.2229 13.7484L44.1482 13.8047C44.1694 6.79002 44.9327 3.36031 38.5156 5.3575L38.5015 1L35.6457 1.01364L35.6084 13.8125Z" fill="#383838"/>
<path id="Vector_11" fill-rule="evenodd" clip-rule="evenodd" d="M46.0654 13.7554L49.0164 13.8144C49.0119 12.5509 48.8243 11.2332 49.325 10.3622L51.6406 13.8161L54.928 13.7952L51.5098 8.58374C52.0052 7.99308 52.392 7.43935 52.9523 6.84618C53.7575 5.99343 54.0081 5.90575 54.5459 4.79814L51.1607 4.82137C50.709 5.75098 49.7579 7.04318 49.0743 7.8142L48.9925 1.01475L46.1149 1.00195L46.0654 13.7554Z" fill="#383838"/>
<path id="Vector_12" fill-rule="evenodd" clip-rule="evenodd" d="M85.1207 16.9087L102.156 16.8959L102.125 13.2344L85.1191 13.3374L85.1207 16.9087Z" fill="#383838"/>
<path id="Vector_13" fill-rule="evenodd" clip-rule="evenodd" d="M67.8424 5.57792C67.2287 4.89346 68.1607 4.72053 64.9609 4.89006L64.9834 13.7347L67.9032 13.8128C67.9079 12.1638 67.8443 10.3995 67.9052 8.79659C67.9687 7.12418 69.2849 6.13765 70.3885 7.52321C71.1212 9.21575 70.3416 11.8257 70.7384 13.7618L73.3868 13.8272C73.7729 12.5921 73.6893 7.51213 73.1996 6.40221C72.3186 4.40635 69.3945 4.03998 67.8424 5.57792Z" fill="#383838"/>
<path id="Vector_14" fill-rule="evenodd" clip-rule="evenodd" d="M21.0451 6.84424L21.7969 6.56654L22.6566 6.75034C24.225 8.66416 24.262 11.8014 21.1793 11.8014C20.1074 11.5135 19.7983 8.27021 21.0451 6.84424ZM20.7876 4.68054C15.0882 5.95008 16.445 15.1632 22.9442 13.8475C28.6483 12.6928 27.2982 3.23028 20.7876 4.68054Z" fill="#383838"/>
<path id="Vector_15" fill-rule="evenodd" clip-rule="evenodd" d="M57.9434 8.20184C58.0033 6.14439 60.8337 5.82951 60.7435 8.23812L57.9434 8.20184ZM63.0625 13.4591L62.7364 11.5244C60.4441 11.8633 58.5438 12.4415 57.8492 10.2585L63.4092 10.1787C64.8354 4.36853 57.8616 2.82044 55.654 6.87153C54.2339 9.47759 54.5331 15.5238 63.0625 13.4591Z" fill="#383838"/>
<path id="Vector_16" fill-rule="evenodd" clip-rule="evenodd" d="M7.37012 3.87166L10.5813 3.91257L10.6157 13.7427L13.5091 13.805L13.5074 3.91721L16.7196 3.89894L16.7222 1.50928L7.44807 1.51583L7.37012 3.87166Z" fill="#383838"/>
<path id="Vector_17" fill-rule="evenodd" clip-rule="evenodd" d="M76.0428 3.21484L75.8114 4.73264L74.6445 5.12516L74.6501 6.59772L75.8685 7.08842C75.9494 11.6922 75.133 14.65 80.7389 13.7497L80.6788 11.6761L78.9387 11.5329L78.7572 6.85351L80.8613 6.84725L80.8745 4.83737L78.7863 4.75085L78.7459 2.59424L76.0428 3.21484Z" fill="#383838"/>
<path id="Vector_18" fill-rule="evenodd" clip-rule="evenodd" d="M31.3517 11.5056C30.2717 12.2833 28.9809 11.7168 27.9803 11.3456L27.3975 13.3929C29.8867 14.0869 33.2002 14.2989 34.0705 11.9931C34.5589 10.6991 33.914 9.50422 33.1876 8.96181C32.6726 8.57722 32.1971 8.42478 31.7163 8.23911C30.6045 7.80955 30.6314 7.96411 30.387 6.98624C31.5614 6.31671 32.0324 6.73774 33.3763 7.09772L33.8777 5.13234C28.2984 3.17347 25.9502 7.70901 28.8884 9.58379C30.0746 10.3405 31.2878 10.1142 31.3517 11.5056Z" fill="#383838"/>
<path id="Vector_19" fill-rule="evenodd" clip-rule="evenodd" d="M88.9242 12.8233C90.5262 12.8233 98.6572 13.1693 99.7266 12.487L99.7785 11.6504C97.8632 11.5217 88.4694 11.1697 87.7783 11.604C86.613 12.3365 87.9392 12.8233 88.9242 12.8233Z" fill="#383838"/>
</g>
</g>
</g>
</svg>
