<svg width="20" height="20" viewBox="0 0 20 20" fill="none" xmlns="http://www.w3.org/2000/svg">
<path d="M7.33398 6.66665C7.34206 5.21663 7.40636 4.43136 7.91861 3.9191C8.5044 3.33331 9.44721 3.33331 11.3328 3.33331H11.9995C13.8851 3.33331 14.8279 3.33331 15.4137 3.9191C15.9995 4.50489 15.9995 5.44769 15.9995 7.33331V12.6666C15.9995 14.5523 15.9995 15.4951 15.4137 16.0809C14.8279 16.6666 13.8851 16.6666 11.9995 16.6666H11.3328C9.44721 16.6666 8.5044 16.6666 7.91861 16.0809C7.40636 15.5686 7.34206 14.7833 7.33398 13.3333" stroke="#F97495" stroke-width="1.5" stroke-linecap="round"/>
<path d="M7.33333 15C5.76199 15 4.97631 15 4.48816 14.5118C4 14.0237 4 13.238 4 11.6667V8.33333C4 6.76199 4 5.97631 4.48816 5.48816C4.97631 5 5.76199 5 7.33333 5" stroke="#F97495" stroke-width="1.5"/>
<path d="M12 10L6 10M6 10L7.33333 11.3334M6 10L7.33333 8.66669" stroke="#F97495" stroke-width="1.5" stroke-linecap="round" stroke-linejoin="round"/>
</svg>
