<svg width="90" height="90" viewBox="0 0 90 90" fill="none" xmlns="http://www.w3.org/2000/svg">
<path fill-rule="evenodd" clip-rule="evenodd" d="M80.7539 31.7624V28.7148C80.7539 25.9534 78.5153 23.7148 75.7539 23.7148H49.4993H7.51953C6.12808 23.7148 5 24.8429 5 26.2344V71.5859C5 72.9774 6.12808 74.1055 7.51953 74.1055H78.2344C79.6258 74.1055 80.7539 72.9774 80.7539 71.5859V31.7624Z" fill="#12A78C"/>
<path d="M22.8047 58.9883H17.7656C16.373 58.9883 15.2461 60.1152 15.2461 61.5078C15.2461 62.9004 16.373 64.0273 17.7656 64.0273H22.8047C24.1973 64.0273 25.3242 62.9004 25.3242 61.5078C25.3242 60.1152 24.1973 58.9883 22.8047 58.9883ZM37.9219 58.9883H32.8828C31.4902 58.9883 30.3633 60.1152 30.3633 61.5078C30.3633 62.9004 31.4902 64.0273 32.8828 64.0273H37.9219C39.3145 64.0273 40.4414 62.9004 40.4414 61.5078C40.4414 60.1152 39.3145 58.9883 37.9219 58.9883ZM37.9219 33.793H17.7656C16.373 33.793 15.2461 34.9199 15.2461 36.3125V41.3516C15.2461 42.7442 16.373 43.8711 17.7656 43.8711H37.9219C39.3145 43.8711 40.4414 42.7442 40.4414 41.3516V36.3125C40.4414 34.9199 39.3145 33.793 37.9219 33.793ZM53.0391 58.9883H48C46.6074 58.9883 45.4805 60.1152 45.4805 61.5078C45.4805 62.9004 46.6074 64.0273 48 64.0273H53.0391C54.4317 64.0273 55.5586 62.9004 55.5586 61.5078C55.5586 60.1152 54.4317 58.9883 53.0391 58.9883ZM68.1562 58.9883H63.1172C61.7246 58.9883 60.5977 60.1152 60.5977 61.5078C60.5977 62.9004 61.7246 64.0273 63.1172 64.0273H68.1562C69.5489 64.0273 70.6758 62.9004 70.6758 61.5078C70.6758 60.1152 69.5489 58.9883 68.1562 58.9883Z" fill="#D0EEE8"/>
<path fill-rule="evenodd" clip-rule="evenodd" d="M71.9483 15C64.2568 15 58 21.5043 58 29.5C58 37.4957 64.2568 44 71.9483 44C79.6399 44 86 37.4957 86 29.5C86 21.5043 79.6399 15 71.9483 15ZM70.7193 34.6669L78.2021 26.8883C78.8075 26.2589 78.8074 25.2394 78.2021 24.6101C77.5967 23.9808 76.6159 23.9808 76.0105 24.6101L69.6236 31.2496L67.1113 28.6378C66.5059 28.0085 65.5251 28.0085 64.9197 28.6378C64.3144 29.2671 64.3144 30.2868 64.9197 30.9161L68.5279 34.6669C68.8305 34.9816 69.2272 35.139 69.6236 35.139C70.0201 35.139 70.4166 34.9816 70.7193 34.6669Z" fill="#D0EEE8"/>
</svg>
