<svg width="284" height="194" viewBox="0 0 284 194" fill="none" xmlns="http://www.w3.org/2000/svg">
<path d="M143.26 174.356C191.155 174.356 230.18 135.492 230.18 87.7589C230.019 39.8641 191.155 1 143.26 1C95.2039 1 56.3398 39.8641 56.3398 87.5976C56.3398 135.492 95.2039 174.356 143.26 174.356Z" fill="#F1F3F9" stroke="#D6DCE8" stroke-width="2" stroke-miterlimit="10"/>
<path d="M235.346 98.7246C235.346 117.27 220.348 132.267 201.642 132.267C201.319 132.267 198.578 132.267 178.42 132.267C164.39 132.267 141.975 132.267 106.175 132.267H89.0811C66.6657 132.751 48.7656 114.851 48.7656 93.2417C48.7656 71.4714 66.8269 53.41 89.5649 54.5389C109.078 -6.41809 198.417 2.12878 205.996 65.1822C222.767 67.2786 235.346 81.4696 235.346 98.7246Z" fill="white" stroke="#D6DCE8" stroke-width="2" stroke-miterlimit="10"/>
<path d="M205.511 65.3436C204.221 65.1824 202.931 65.1824 201.641 65.1824C195.029 65.1824 188.74 67.1175 183.418 70.504" fill="white"/>
<path d="M205.511 65.3436C204.221 65.1824 202.931 65.1824 201.641 65.1824C195.029 65.1824 188.74 67.1175 183.418 70.504" stroke="#D6DCE8" stroke-width="2" stroke-miterlimit="10" stroke-linecap="round"/>
<path d="M89.5629 54.5388C87.6277 60.3442 86.6602 66.4722 86.6602 72.9227C86.6602 75.5029 86.8214 77.9218 87.1439 80.3407" fill="white"/>
<path d="M89.5629 54.5388C87.6277 60.3442 86.6602 66.4722 86.6602 72.9227C86.6602 75.5029 86.8214 77.9218 87.1439 80.3407" stroke="#D6DCE8" stroke-width="2" stroke-miterlimit="10" stroke-linecap="round" stroke-linejoin="round"/>
<path d="M125.707 92.412C128.247 92.412 130.395 90.2634 130.395 87.7241C130.395 85.1848 128.247 83.0361 125.707 83.0361C123.168 83.0361 121.02 85.1848 121.02 87.7241C121.02 90.2634 123.168 92.412 125.707 92.412Z" fill="#989FB0"/>
<path d="M161.645 92.412C164.184 92.412 166.333 90.2634 166.333 87.7241C166.333 85.1848 164.184 83.0361 161.645 83.0361C159.106 83.0361 156.957 85.1848 156.957 87.7241C156.957 90.4587 159.106 92.412 161.645 92.412Z" fill="#989FB0"/>
<path d="M125.523 72.2145L115.211 77.7826L116.603 80.3607L126.915 74.7926L125.523 72.2145Z" fill="#989FB0"/>
<path d="M161.013 72.1401L159.621 74.7185L169.935 80.2854L171.326 77.707L161.013 72.1401Z" fill="#989FB0"/>
<path d="M143.68 103.35C146.701 103.35 149.149 101.514 149.149 99.2484C149.149 96.983 146.701 95.1465 143.68 95.1465C140.66 95.1465 138.211 96.983 138.211 99.2484C138.211 101.514 140.66 103.35 143.68 103.35Z" fill="#989FB0"/>
<path d="M28.7229 24.1589C28.7229 24.1589 6.18081 29.8823 13.0117 34.461C19.8427 38.8107 36.0092 46.3655 51.2649 41.329C66.5207 36.2924 51.2649 29.1955 51.4926 29.1955C51.7203 29.1955 28.7229 24.1589 28.7229 24.1589Z" fill="#F1F3F9" stroke="#D6DCE8" stroke-width="2" stroke-miterlimit="10"/>
<path d="M1.17188 22.3275C9.36899 24.8457 34.6434 20.7249 50.8099 10.194C63.561 25.9904 68.3427 30.1112 72.8966 30.5691C65.838 37.666 42.3851 49.1127 29.1787 34.232C13.6952 44.0762 1.17188 22.3275 1.17188 22.3275Z" fill="white" stroke="#D6DCE8" stroke-width="2" stroke-miterlimit="10" stroke-linejoin="round"/>
<path d="M210.926 79.5691C219.578 80.027 243.031 69.496 255.782 55.3021C272.176 67.4356 277.641 70.1828 282.423 69.496C277.186 78.1955 261.247 97.197 238.705 98.5706C222.311 88.9554 210.926 79.5691 210.926 79.5691Z" fill="white" stroke="#D6DCE8" stroke-width="2" stroke-miterlimit="10" stroke-linejoin="round"/>
<path d="M141.854 186.955C140.142 178.461 124.101 158.371 107.178 149.557C114.845 130.658 116.145 124.681 114.288 120.221C124.018 123.126 146.391 133.829 153.337 155.319C148.108 173.591 141.854 186.955 141.854 186.955Z" fill="white" stroke="#D6DCE8" stroke-width="2" stroke-miterlimit="10" stroke-linejoin="round"/>
</svg>
