<svg width="89" height="107" viewBox="0 0 89 107" fill="none" xmlns="http://www.w3.org/2000/svg">
<g id="Send">
<g id="Bg">
<path id="Send_2" fill-rule="evenodd" clip-rule="evenodd" d="M54.4841 22.2158L32.2772 44.7233L6.27827 28.6123C2.87151 26.5008 3.56202 21.2916 7.39987 20.17L68.7826 2.18725C72.2733 1.17016 75.5008 4.46507 74.4555 7.99588L56.2428 69.733C55.1022 73.5964 49.9863 74.2654 47.9186 70.8158L32.2772 44.7233" fill="url(#paint0_linear_7529_2266)"/>
<g id="Send_3" opacity="0.5" filter="url(#filter0_f_7529_2266)">
<path fill-rule="evenodd" clip-rule="evenodd" d="M51.3004 27.2801L38.057 40.7028L22.5521 31.0947C20.5205 29.8355 20.9323 26.7289 23.221 26.0601L59.8274 15.3358C61.9092 14.7292 63.8339 16.6942 63.2105 18.7998L52.3492 55.6176C51.6689 57.9216 48.618 58.3206 47.3849 56.2634L38.057 40.7028" fill="#0062FF"/>
</g>
</g>
<g id="Icon">
<g id="Send_4" filter="url(#filter1_b_7529_2266)">
<mask id="path-3-outside-1_7529_2266" maskUnits="userSpaceOnUse" x="0" y="16.4075" width="90" height="91" fill="black">
<rect fill="white" y="16.4075" width="90" height="91"/>
<path fill-rule="evenodd" clip-rule="evenodd" d="M63.1344 43.3281L35.7594 71.0737L3.70977 51.2132C-0.489833 48.6102 0.361376 42.1887 5.0924 40.8062L80.7606 18.6383C85.0636 17.3845 89.0422 21.4462 87.7536 25.7988L65.3024 101.904C63.8963 106.666 57.5898 107.491 55.0409 103.239L35.7594 71.0737"/>
</mask>
<path fill-rule="evenodd" clip-rule="evenodd" d="M63.1344 43.3281L35.7594 71.0737L3.70977 51.2132C-0.489833 48.6102 0.361376 42.1887 5.0924 40.8062L80.7606 18.6383C85.0636 17.3845 89.0422 21.4462 87.7536 25.7988L65.3024 101.904C63.8963 106.666 57.5898 107.491 55.0409 103.239L35.7594 71.0737" fill="#3EA0FE" fill-opacity="0.35"/>
<path d="M63.8463 44.0304C64.2342 43.6373 64.2299 43.0041 63.8368 42.6162C63.4436 42.2283 62.8105 42.2326 62.4226 42.6257L63.8463 44.0304ZM35.7594 71.0737L35.2327 71.9237C35.6294 72.1696 36.1434 72.1083 36.4713 71.776L35.7594 71.0737ZM3.70977 51.2132L3.18295 52.0631L3.18303 52.0632L3.70977 51.2132ZM5.0924 40.8062L5.37289 41.766L5.37355 41.7658L5.0924 40.8062ZM80.7606 18.6383L80.4808 17.6782L80.4794 17.6786L80.7606 18.6383ZM87.7536 25.7988L86.7948 25.5149L86.7945 25.5158L87.7536 25.7988ZM65.3024 101.904L66.2615 102.187L66.2616 102.187L65.3024 101.904ZM55.0409 103.239L55.8986 102.724L55.8986 102.724L55.0409 103.239ZM36.6171 70.5595C36.3331 70.0858 35.7189 69.932 35.2453 70.216C34.7716 70.4999 34.6177 71.1141 34.9017 71.5878L36.6171 70.5595ZM62.4226 42.6257L35.0476 70.3713L36.4713 71.776L63.8463 44.0304L62.4226 42.6257ZM36.2862 70.2237L4.23652 50.3631L3.18303 52.0632L35.2327 71.9237L36.2862 70.2237ZM4.23659 50.3632C0.763196 48.2104 1.48272 42.9028 5.37289 41.766L4.81191 39.8463C-0.75997 41.4746 -1.74286 49.0101 3.18295 52.0631L4.23659 50.3632ZM5.37355 41.7658L81.0417 19.598L80.4794 17.6786L4.81125 39.8465L5.37355 41.7658ZM81.0403 19.5984C84.5594 18.573 87.866 21.8965 86.7948 25.5149L88.7125 26.0826C90.2184 20.9959 85.5678 16.196 80.4808 17.6782L81.0403 19.5984ZM86.7945 25.5158L64.3433 101.621L66.2616 102.187L88.7128 26.0817L86.7945 25.5158ZM64.3434 101.621C63.1809 105.558 57.9944 106.221 55.8986 102.724L54.1832 103.753C57.1853 108.761 64.6117 107.775 66.2615 102.187L64.3434 101.621ZM55.8986 102.724L36.6171 70.5595L34.9017 71.5878L54.1832 103.753L55.8986 102.724Z" fill="url(#paint1_linear_7529_2266)" mask="url(#path-3-outside-1_7529_2266)"/>
</g>
<g id="Rectangle 1018" filter="url(#filter2_bd_7529_2266)">
<rect width="29.8715" height="5.15025" transform="matrix(0.704703 -0.709503 0.704703 0.709503 40.9072 62.2097)" fill="url(#paint2_linear_7529_2266)"/>
<rect x="0.140941" width="29.6715" height="4.95025" transform="matrix(0.704703 -0.709503 0.704703 0.709503 40.9488 62.3097)" stroke="url(#paint3_linear_7529_2266)" stroke-opacity="0.5" stroke-width="0.2"/>
</g>
</g>
</g>
<defs>
<filter id="filter0_f_7529_2266" x="6.24121" y="0.224121" width="72.0889" height="72.3752" filterUnits="userSpaceOnUse" color-interpolation-filters="sRGB">
<feFlood flood-opacity="0" result="BackgroundImageFix"/>
<feBlend mode="normal" in="SourceGraphic" in2="BackgroundImageFix" result="shape"/>
<feGaussianBlur stdDeviation="7.5" result="effect1_foregroundBlur_7529_2266"/>
</filter>
<filter id="filter1_b_7529_2266" x="-15" y="2.40503" width="119" height="119.596" filterUnits="userSpaceOnUse" color-interpolation-filters="sRGB">
<feFlood flood-opacity="0" result="BackgroundImageFix"/>
<feGaussianBlur in="BackgroundImageFix" stdDeviation="7.5"/>
<feComposite in2="SourceAlpha" operator="in" result="effect1_backgroundBlur_7529_2266"/>
<feBlend mode="normal" in="SourceGraphic" in2="effect1_backgroundBlur_7529_2266" result="shape"/>
</filter>
<filter id="filter2_bd_7529_2266" x="25.9072" y="26.0159" width="54.6797" height="54.8479" filterUnits="userSpaceOnUse" color-interpolation-filters="sRGB">
<feFlood flood-opacity="0" result="BackgroundImageFix"/>
<feGaussianBlur in="BackgroundImageFix" stdDeviation="7.5"/>
<feComposite in2="SourceAlpha" operator="in" result="effect1_backgroundBlur_7529_2266"/>
<feColorMatrix in="SourceAlpha" type="matrix" values="0 0 0 0 0 0 0 0 0 0 0 0 0 0 0 0 0 0 127 0" result="hardAlpha"/>
<feOffset dx="5" dy="5"/>
<feGaussianBlur stdDeviation="5"/>
<feColorMatrix type="matrix" values="0 0 0 0 0.15375 0 0 0 0 0.522433 0 0 0 0 0.9 0 0 0 0.5 0"/>
<feBlend mode="normal" in2="effect1_backgroundBlur_7529_2266" result="effect2_dropShadow_7529_2266"/>
<feBlend mode="normal" in="SourceGraphic" in2="effect2_dropShadow_7529_2266" result="shape"/>
</filter>
<linearGradient id="paint0_linear_7529_2266" x1="74.9434" y1="2" x2="-2.94416" y2="64.8319" gradientUnits="userSpaceOnUse">
<stop stop-color="#39AFFD"/>
<stop offset="1" stop-color="#477FFF"/>
</linearGradient>
<linearGradient id="paint1_linear_7529_2266" x1="14.849" y1="28.6121" x2="70.8024" y2="97.443" gradientUnits="userSpaceOnUse">
<stop stop-color="white" stop-opacity="0.25"/>
<stop offset="1" stop-color="white" stop-opacity="0"/>
</linearGradient>
<linearGradient id="paint2_linear_7529_2266" x1="27.7536" y1="0.930032" x2="-4.4057" y2="7.01154" gradientUnits="userSpaceOnUse">
<stop stop-color="white"/>
<stop offset="1" stop-color="white" stop-opacity="0.2"/>
</linearGradient>
<linearGradient id="paint3_linear_7529_2266" x1="3.21781" y1="1.72766" x2="28.5576" y2="2.53899" gradientUnits="userSpaceOnUse">
<stop stop-color="white"/>
<stop offset="1" stop-color="white" stop-opacity="0"/>
</linearGradient>
</defs>
</svg>
