<svg width="28" height="28" viewBox="0 0 28 28" fill="none" xmlns="http://www.w3.org/2000/svg">
<path d="M15.4004 4.6665C15.4004 4.6665 17.5783 4.86449 20.3501 7.63635C23.122 10.4082 23.32 12.5861 23.32 12.5861" stroke="#9E9EA5" stroke-width="1.5" stroke-linecap="round"/>
<path d="M16.0596 7.9668C16.0596 7.9668 16.9835 8.23078 18.3695 9.61671C19.7554 11.0026 20.0194 11.9266 20.0194 11.9266" stroke="#9E9EA5" stroke-width="1.5" stroke-linecap="round"/>
<path d="M16.8936 16.8255L16.3498 16.309L16.8936 16.8255ZM17.3187 16.378L17.8625 16.8945L17.3187 16.378ZM19.5742 16.0649L19.2001 16.7149L19.2001 16.7149L19.5742 16.0649ZM21.3574 17.0913L20.9832 17.7413L21.3574 17.0913ZM21.8598 20.308L22.4036 20.8245H22.4036L21.8598 20.308ZM20.534 21.7038L19.9902 21.1873L20.534 21.7038ZM19.2975 22.3657L19.3711 23.112L19.2975 22.3657ZM10.0939 18.1769L10.6377 17.6604L10.0939 18.1769ZM5.6023 9.30164L4.85338 9.34184L4.85338 9.34184L5.6023 9.30164ZM11.6453 10.7363L12.1891 11.2529L11.6453 10.7363ZM11.7916 8.11366L12.404 7.68067L12.404 7.68067L11.7916 8.11366ZM10.6146 6.44907L10.0023 6.88205L10.0023 6.88205L10.6146 6.44907ZM7.7103 6.16816L8.25409 6.68468V6.68468L7.7103 6.16816ZM6.24534 7.71049L5.70154 7.19398L5.70154 7.19398L6.24534 7.71049ZM13.1252 14.9856L13.669 14.4691L13.1252 14.9856ZM17.4374 17.342L17.8625 16.8945L16.7749 15.8614L16.3498 16.309L17.4374 17.342ZM19.2001 16.7149L20.9832 17.7413L21.7315 16.4413L19.9484 15.4149L19.2001 16.7149ZM21.316 19.7915L19.9902 21.1873L21.0778 22.2203L22.4036 20.8245L21.316 19.7915ZM19.2238 21.6193C17.8974 21.7502 14.4188 21.6412 10.6377 17.6604L9.55015 18.6935C13.6964 23.0587 17.6559 23.2813 19.3711 23.112L19.2238 21.6193ZM10.6377 17.6604C7.02859 13.8607 6.42626 10.6593 6.35123 9.26144L4.85338 9.34184C4.94663 11.0791 5.68396 14.6231 9.55015 18.6935L10.6377 17.6604ZM11.9214 11.5347L12.1891 11.2529L11.1015 10.2198L10.8338 10.5017L11.9214 11.5347ZM12.404 7.68067L11.227 6.01609L10.0023 6.88205L11.1792 8.54664L12.404 7.68067ZM7.1665 5.65165L5.70154 7.19398L6.78913 8.22701L8.25409 6.68468L7.1665 5.65165ZM11.3776 11.0182C10.8338 10.5017 10.8331 10.5024 10.8324 10.5031C10.8322 10.5034 10.8315 10.5041 10.831 10.5046C10.8301 10.5056 10.8291 10.5067 10.8281 10.5077C10.8262 10.5098 10.8241 10.512 10.8221 10.5143C10.8179 10.5189 10.8135 10.5238 10.8089 10.5291C10.7997 10.5397 10.7896 10.5518 10.7788 10.5654C10.7573 10.5926 10.7331 10.6258 10.7078 10.6653C10.6571 10.7446 10.6024 10.8485 10.5562 10.9783C10.4622 11.2425 10.4118 11.5901 10.4751 12.0217C10.5992 12.8689 11.1525 13.9978 12.5814 15.5021L13.669 14.4691C12.3398 13.0697 12.0194 12.2149 11.9592 11.8043C11.9303 11.607 11.9602 11.5072 11.9694 11.4812C11.9748 11.4659 11.9776 11.464 11.9713 11.4738C11.9683 11.4786 11.9631 11.4861 11.955 11.4963C11.951 11.5013 11.9463 11.5071 11.9407 11.5135C11.9379 11.5167 11.9349 11.5201 11.9317 11.5236C11.9301 11.5254 11.9284 11.5272 11.9267 11.529C11.9259 11.5299 11.925 11.5309 11.9241 11.5318C11.9237 11.5323 11.923 11.533 11.9228 11.5332C11.9221 11.534 11.9214 11.5347 11.3776 11.0182ZM12.5814 15.5021C14.0058 17.0017 15.0886 17.5991 15.9234 17.7347C16.3524 17.8044 16.7017 17.749 16.9678 17.644C17.0978 17.5927 17.2009 17.5324 17.2787 17.4773C17.3175 17.4498 17.3499 17.4236 17.3762 17.4005C17.3893 17.389 17.401 17.3782 17.4112 17.3684C17.4162 17.3635 17.421 17.3588 17.4253 17.3544C17.4275 17.3522 17.4296 17.3501 17.4316 17.348C17.4326 17.347 17.4336 17.346 17.4346 17.345C17.4351 17.3445 17.4358 17.3437 17.436 17.3435C17.4367 17.3427 17.4374 17.342 16.8936 16.8255C16.3498 16.309 16.3505 16.3083 16.3512 16.3075C16.3514 16.3073 16.3521 16.3066 16.3525 16.3061C16.3534 16.3052 16.3543 16.3043 16.3552 16.3034C16.357 16.3015 16.3587 16.2998 16.3604 16.2981C16.3638 16.2947 16.367 16.2915 16.3701 16.2885C16.3763 16.2825 16.3819 16.2774 16.387 16.2729C16.3972 16.264 16.4051 16.2579 16.4109 16.2538C16.4226 16.2455 16.4253 16.2456 16.4175 16.2486C16.408 16.2524 16.3323 16.2815 16.1639 16.2541C15.804 16.1957 15.0026 15.8732 13.669 14.4691L12.5814 15.5021ZM11.227 6.01609C10.2643 4.65445 8.33438 4.42209 7.1665 5.65165L8.25409 6.68468C8.71862 6.19561 9.54077 6.22935 10.0023 6.88205L11.227 6.01609ZM6.35123 9.26144C6.33214 8.9059 6.48665 8.54546 6.78913 8.22701L5.70154 7.19398C5.1946 7.72769 4.80669 8.47193 4.85338 9.34184L6.35123 9.26144ZM19.9902 21.1873C19.7352 21.4557 19.4732 21.5947 19.2238 21.6193L19.3711 23.112C20.0838 23.0417 20.6585 22.6618 21.0778 22.2203L19.9902 21.1873ZM12.1891 11.2529C13.1096 10.2838 13.1736 8.76922 12.404 7.68067L11.1792 8.54664C11.5602 9.08558 11.4999 9.80035 11.1015 10.2198L12.1891 11.2529ZM20.9832 17.7413C21.7223 18.1667 21.8649 19.2136 21.316 19.7915L22.4036 20.8245C23.6447 19.5179 23.2826 17.3341 21.7315 16.4413L20.9832 17.7413ZM17.8625 16.8945C18.206 16.5329 18.7411 16.4508 19.2001 16.7149L19.9484 15.4149C18.9036 14.8136 17.6067 14.9857 16.7749 15.8614L17.8625 16.8945Z" fill="#9E9EA5"/>
</svg>
