<svg width="65" height="26" viewBox="0 0 65 26" fill="none" xmlns="http://www.w3.org/2000/svg">
<g id="Frame" clip-path="url(#clip0_2692_33985)">
<path id="Vector" d="M34.3112 18.854C33.7262 18.854 33.19 18.7654 32.7025 18.5884C32.2069 18.4114 31.8087 18.1458 31.4512 17.832C31.0937 17.4779 30.8256 17.0756 30.5981 16.5445C30.4194 16.0134 30.2812 15.434 30.2812 14.7258V14.412C30.2812 13.7441 30.3706 13.213 30.5981 12.6819C30.8256 12.191 31.0937 11.7967 31.4512 11.4426C31.8087 11.0886 32.2556 10.8632 32.7025 10.6862C33.1981 10.5092 33.6856 10.4207 34.2219 10.4207C34.8069 10.4207 35.2944 10.5092 35.7412 10.646C36.1881 10.7828 36.5456 11 36.8625 11.2656C37.1794 11.5311 37.3987 11.845 37.5775 12.1991C37.7562 12.5531 37.8456 12.9555 37.935 13.3498H35.8712C35.7331 12.9957 35.5544 12.6819 35.335 12.4646C35.1075 12.2393 34.75 12.1508 34.2625 12.1508C33.9944 12.1508 33.7669 12.1991 33.4987 12.2876C33.2712 12.3761 33.0519 12.5129 32.8731 12.6899C32.6944 12.867 32.5562 13.1325 32.4669 13.3981C32.3775 13.6636 32.3287 14.0177 32.3287 14.42V14.7339C32.3287 15.1765 32.3775 15.5305 32.4669 15.8444C32.5562 16.1582 32.6944 16.4237 32.8731 16.6008C33.0519 16.7778 33.2306 16.9549 33.4987 17.0434C33.7262 17.1319 33.9944 17.1802 34.2625 17.1802C34.6688 17.1802 35.0262 17.0917 35.2944 16.8663C35.5625 16.641 35.79 16.3755 35.8794 15.9812H37.9431C37.8944 16.4237 37.7644 16.8261 37.5856 17.1802C37.4069 17.5342 37.1388 17.8481 36.8219 18.1136C36.505 18.3792 36.1475 18.5562 35.7006 18.693C35.3431 18.8137 34.8475 18.854 34.3112 18.854Z" fill="black"/>
<path id="Vector_2" d="M42.1526 18.7655C41.657 18.7655 41.2588 18.7172 40.942 18.6287C40.5845 18.5402 40.3163 18.4034 40.0888 18.1861C39.8613 17.9689 39.6826 17.6953 39.5932 17.301C39.5038 16.9469 39.4551 16.5043 39.4551 15.9249V8.03076H41.4701V15.7076C41.4701 15.9732 41.4701 16.1985 41.5188 16.3273C41.5676 16.5043 41.6082 16.6411 41.6976 16.7296C41.787 16.8181 41.8763 16.9067 42.0551 16.9549C42.1932 17.0032 42.372 17.0435 42.5913 17.0435C42.7295 17.0435 42.8188 17.0435 42.9082 17.0435C42.9976 17.0435 43.087 17.0435 43.1357 16.9952V18.685C43.087 18.685 42.9976 18.685 42.9082 18.7333C42.8188 18.7333 42.7295 18.7333 42.6807 18.7816C42.5913 18.7816 42.502 18.7816 42.4126 18.7816H42.1526V18.7655Z" fill="black"/>
<path id="Vector_3" d="M44.6143 10.606H46.6293V18.6771H44.6143V10.606ZM45.6462 9.76102C45.2887 9.76102 44.9718 9.67251 44.7524 9.44719C44.533 9.22187 44.4355 8.95632 44.4355 8.65053C44.4355 8.34474 44.5249 8.07114 44.7524 7.85387C44.9799 7.62856 45.2887 7.54004 45.6462 7.54004C46.0037 7.54004 46.3205 7.62856 46.5399 7.85387C46.7674 8.07919 46.8568 8.34474 46.8568 8.65053C46.8568 8.95632 46.7674 9.22992 46.5399 9.44719C46.3124 9.66446 46.0037 9.76102 45.6462 9.76102Z" fill="black"/>
<path id="Vector_4" d="M52.2351 18.854C51.6501 18.854 51.1138 18.7654 50.6263 18.5884C50.1307 18.4114 49.7326 18.1458 49.3751 17.832C49.0176 17.4779 48.7495 17.0756 48.522 16.5445C48.3432 16.0134 48.2051 15.434 48.2051 14.7258V14.412C48.2051 13.7441 48.2945 13.213 48.522 12.6819C48.7495 12.191 49.0176 11.7967 49.3751 11.4426C49.7326 11.0886 50.1795 10.8632 50.6263 10.6862C51.122 10.5092 51.6095 10.4207 52.1457 10.4207C52.7307 10.4207 53.2182 10.5092 53.6651 10.646C54.112 10.7828 54.4695 11 54.7863 11.2656C55.1032 11.5311 55.3226 11.845 55.5013 12.1991C55.6801 12.5531 55.7695 12.9555 55.8588 13.3498H53.7951C53.657 12.9957 53.4782 12.6819 53.2588 12.4646C53.0313 12.2393 52.6738 12.1508 52.1863 12.1508C51.9182 12.1508 51.6907 12.1991 51.4226 12.2876C51.1951 12.3761 50.9757 12.5129 50.797 12.6899C50.6182 12.867 50.4801 13.1325 50.3907 13.3981C50.3013 13.6636 50.2526 14.0177 50.2526 14.42V14.7339C50.2526 15.1765 50.3013 15.5305 50.3907 15.8444C50.4801 16.1582 50.6182 16.4237 50.797 16.6008C50.9757 16.7778 51.1545 16.9549 51.4226 17.0434C51.6501 17.1319 51.9182 17.1802 52.1863 17.1802C52.5926 17.1802 52.9501 17.0917 53.2182 16.8663C53.4863 16.641 53.7138 16.3755 53.8032 15.9812H55.867C55.8182 16.4237 55.6882 16.8261 55.5095 17.1802C55.3307 17.5342 55.0626 17.8481 54.7457 18.1136C54.4288 18.3792 54.0713 18.5562 53.6245 18.693C53.2588 18.8137 52.7713 18.854 52.2351 18.854Z" fill="black"/>
<path id="Vector_5" d="M57.2969 18.677V8.03076H59.3606V13.9292L62.3181 10.5978H64.6906L61.6437 14.0178L65.0075 18.677H62.5862L60.2544 15.3938L59.3606 16.3675V18.677H57.2969Z" fill="black"/>
<path id="Vector_6" fill-rule="evenodd" clip-rule="evenodd" d="M4.47687 4.43392C1.47875 7.36305 0 10.1634 0 12.9557V13.004C0 15.7963 1.47875 18.637 4.47687 21.5661C7.43437 24.4952 10.3025 25.9598 13.1219 26H13.1706C15.99 26 18.8581 24.5354 21.8156 21.5661C27.7306 15.7078 27.7712 10.3405 21.8156 4.39369C18.8175 1.46456 15.9494 0 13.1219 0C10.2619 0 7.43437 1.46456 4.47687 4.43392ZM8.37687 17.6552C5.11062 14.4203 5.15125 11.4912 8.37687 8.2965C11.6025 5.10183 14.56 5.06159 17.8262 8.2965C21.0925 11.5314 21.0519 14.4605 17.8262 17.6552C16.2175 19.2485 14.6494 20.0532 13.1219 20.0532C11.5538 20.1015 10.0344 19.2968 8.37687 17.6552Z" fill="url(#paint0_linear_2692_33985)"/>
</g>
<defs>
<linearGradient id="paint0_linear_2692_33985" x1="4.37697" y1="22.1056" x2="20.9379" y2="4.56955" gradientUnits="userSpaceOnUse">
<stop stop-color="#0078FF"/>
<stop offset="1" stop-color="#00DEFF"/>
</linearGradient>
<clipPath id="clip0_2692_33985">
<rect width="65" height="26" fill="white"/>
</clipPath>
</defs>
</svg>
