<svg width="231" height="66" viewBox="0 0 231 66" fill="none" xmlns="http://www.w3.org/2000/svg">
<rect x="0.5" y="0.5" width="230" height="65" rx="11.5" stroke="#EAEBED"/>
<path d="M0 15C2.20914 15 4 16.7909 4 19V47C4 49.2091 2.20914 51 0 51V15Z" fill="#EAEBED"/>
<path d="M45.3769 42.5529C45.5605 42.0725 46.1023 41.8429 46.5957 42.0056C47.076 42.1639 47.5667 42.2804 48.0811 42.2804C48.7903 42.2804 49.3982 42.1504 49.9048 41.8904C50.887 41.4431 51.2508 40.3059 51.6677 39.4007L46.7344 26.4175C46.5624 25.9649 46.9014 25.4822 47.3912 25.4822H50.3281C50.7291 25.4822 51.0855 25.7345 51.214 26.1094L53.7953 33.6413L56.3767 26.1094C56.5051 25.7345 56.8615 25.4822 57.2626 25.4822H60.0122C60.5033 25.4822 60.8424 25.9674 60.6679 26.4204L55.1023 40.8705C54.4539 42.5104 53.6028 43.7702 52.5491 44.6501C51.4955 45.55 50.1074 46 48.3851 46C47.3698 46 46.3766 45.8168 45.4232 45.4979C44.839 45.3025 44.5728 44.6567 44.7905 44.0871L45.3769 42.5529Z" fill="#1B9684"/>
<path d="M40.7677 38.1708C39.6948 39.2297 38.3326 39.5272 36.8008 39.5207C34.0786 39.5091 31.8155 38.1925 30.9198 35.6511C30.2435 33.7322 30.2292 31.4187 30.9198 29.5018C31.8272 26.983 34.0763 25.4822 36.8164 25.4822C38.2883 25.4822 39.6632 25.6879 40.7677 26.6521V26.4052C40.7677 25.8954 41.1864 25.4822 41.7029 25.4822H45.0323V39.5207H41.7029C41.1864 39.5207 40.7677 39.1075 40.7677 38.5977V38.1708ZM40.1902 35.1412C40.7373 34.4412 41.0108 33.5613 41.0108 32.5014C41.0108 31.3016 40.7069 30.3917 40.099 29.7717C38.9092 28.5166 36.6304 28.4965 35.5398 29.8917C34.4281 31.3264 34.4565 33.7465 35.5702 35.1711C36.6851 36.5567 39.0958 36.5412 40.1902 35.1412Z" fill="#1B9684"/>
<path d="M22.93 20.0828H18.9927C17.9452 20.0828 17.4214 20.0828 17.0213 20.284C16.6693 20.4609 16.3832 20.7433 16.2039 21.0907C16 21.4855 16 22.0025 16 23.0363V23.6824H22.5652C23.5379 23.6824 24.2876 23.9324 24.8145 24.4323C24.8828 24.4923 24.947 24.5545 25.0068 24.6188C25.4257 25.0694 25.6351 25.6272 25.6351 26.2921C25.6351 26.3421 25.6341 26.3916 25.6321 26.4406C25.6025 27.1752 25.3502 27.7957 24.8752 28.3019C24.8145 28.3694 24.7494 28.4327 24.6801 28.4917C24.1947 28.9051 23.4999 29.1118 22.5956 29.1118H16V36.5672C16 37.601 16 38.1179 16.2039 38.5128C16.3832 38.8601 16.6693 39.1425 17.0213 39.3195C17.4214 39.5207 17.9452 39.5207 18.9927 39.5207H20.0612V32.5614H23.0212C24.0343 32.5614 24.9563 32.4214 25.7871 32.1415C26.6381 31.8615 27.3676 31.4515 27.9755 30.9116C28.5834 30.3517 29.0494 29.6617 29.3737 28.8418C29.7181 28.0019 29.8904 27.042 29.8904 25.9621C29.8904 25.0622 29.7283 24.2523 29.4041 23.5324C29.0798 22.8125 28.6138 22.2025 28.0059 21.7026C27.398 21.1826 26.6584 20.7827 25.7871 20.5027C24.936 20.2227 23.9837 20.0828 22.93 20.0828Z" fill="#1B9684"/>
<path d="M83.9753 26.4459C83.7783 25.9893 84.1178 25.4825 84.6207 25.4825H87.5969C87.9845 25.4825 88.3319 25.7184 88.4704 26.0756L91.0671 32.7717L93.6347 26.0787C93.7724 25.7199 94.1206 25.4825 94.5093 25.4825H97.2966C97.8006 25.4825 98.1401 25.9913 97.941 26.4482L92.435 39.0827C92.2874 39.4214 91.9496 39.641 91.5759 39.641H90.2872C89.9123 39.641 89.5736 39.42 89.4267 39.0796L83.9753 26.4459Z" fill="#334055"/>
<path d="M76.4984 36.1914C77.0253 36.1914 77.4812 36.0914 77.8662 35.8914C78.2715 35.6914 78.6058 35.4314 78.8692 35.1115C79.1529 34.7715 79.3555 34.3815 79.4771 33.9416C79.619 33.4816 79.6899 33.0017 79.6899 32.5017C79.6899 32.0018 79.619 31.5319 79.4771 31.0919C79.3555 30.6319 79.1529 30.242 78.8692 29.922C78.6058 29.5821 78.2715 29.3121 77.8662 29.1121C77.4812 28.9121 77.0253 28.8121 76.4984 28.8121C75.9716 28.8121 75.5055 28.9121 75.1003 29.1121C74.7153 29.3121 74.3809 29.5821 74.0973 29.922C73.8338 30.242 73.6312 30.6319 73.4894 31.0919C73.3475 31.5319 73.2766 32.0018 73.2766 32.5017C73.2766 33.0017 73.3475 33.4816 73.4894 33.9416C73.6312 34.3815 73.8338 34.7715 74.0973 35.1115C74.3809 35.4314 74.7153 35.6914 75.1003 35.8914C75.5055 36.0914 75.9716 36.1914 76.4984 36.1914ZM76.4984 39.9709C75.3434 39.9709 74.2999 39.781 73.3678 39.401C72.4559 39.0011 71.6657 38.4711 70.997 37.8112C70.3486 37.1313 69.8521 36.3413 69.5077 35.4414C69.1632 34.5215 68.9909 33.5416 68.9909 32.5017C68.9909 31.4619 69.1632 30.492 69.5077 29.5921C69.8521 28.6922 70.3486 27.9022 70.997 27.2223C71.6657 26.5424 72.4559 26.0124 73.3678 25.6325C74.2999 25.2325 75.3434 25.0325 76.4984 25.0325C77.6534 25.0325 78.6869 25.2325 79.5987 25.6325C80.5308 26.0124 81.3211 26.5424 81.9695 27.2223C82.6382 27.9022 83.1447 28.6922 83.4892 29.5921C83.8337 30.492 84.0059 31.4619 84.0059 32.5017C84.0059 33.5416 83.8337 34.5215 83.4892 35.4414C83.1447 36.3413 82.6382 37.1313 81.9695 37.8112C81.3211 38.4711 80.5308 39.0011 79.5987 39.401C78.6869 39.781 77.6534 39.9709 76.4984 39.9709Z" fill="#334055"/>
<path d="M62.5898 21.846C62.5898 20.8265 63.4273 20 64.4603 20H67.0883V39.521H64.4603C63.4273 39.521 62.5898 38.6945 62.5898 37.675V21.846Z" fill="#334055"/>
<ellipse cx="22.7491" cy="26.4095" rx="1.2882" ry="1.27133" fill="#FA8231"/>
</svg>
