<svg width="82" height="24" viewBox="0 0 82 24" fill="none" xmlns="http://www.w3.org/2000/svg">
<path d="M13.4361 2.37402C13.1489 1.90624 12.7744 1.49884 12.3333 1.17433C11.8878 0.867798 11.3997 0.629277 10.8849 0.466507C10.3255 0.28233 9.74787 0.159647 9.16221 0.100601C8.4768 0.0333676 7.78843 0.00133427 7.09978 0.00462532H1.139C1.00083 -0.00850856 0.861441 0.00639756 0.729098 0.0484607C0.596754 0.0905237 0.474146 0.158888 0.368535 0.249504C0.262925 0.34012 0.176461 0.451144 0.114266 0.576C0.0520704 0.700856 0.0154085 0.837003 0.00645198 0.976377C0.00645198 0.976377 0.00645198 1.01237 0.00645198 1.03036V10.7719C0.832868 12.5564 2.20525 14.0278 3.92268 14.9708V13.0153C3.9096 12.8644 3.92622 12.7124 3.97159 12.568C4.01695 12.4236 4.09018 12.2896 4.18708 12.1737C4.28397 12.0578 4.40263 11.9623 4.53626 11.8926C4.66988 11.8229 4.81586 11.7805 4.96582 11.7676H6.75406C9.194 11.7676 11.0557 11.2537 12.3393 10.226C13.6229 9.19828 14.2746 7.67466 14.2944 5.65518C14.2965 5.0732 14.2285 4.49311 14.0918 3.92762C13.9555 3.37836 13.7342 2.85409 13.4361 2.37402ZM9.94307 7.38274C9.73518 7.74271 9.42618 8.03279 9.05492 8.21653C8.65264 8.40988 8.21798 8.52584 7.77335 8.55844C7.28495 8.61964 6.7932 8.64969 6.30104 8.64841H4.58433C4.17304 8.64841 3.91672 8.3125 3.91672 7.82063V3.80165C3.91079 3.71347 3.9243 3.62507 3.95628 3.54275C3.98826 3.46044 4.03792 3.38625 4.10171 3.3255C4.16549 3.26474 4.24183 3.21893 4.32527 3.19132C4.4087 3.16372 4.49716 3.15501 4.58433 3.16582H6.30104C6.85738 3.16582 7.38192 3.18181 7.87468 3.2138C8.31384 3.23501 8.74486 3.3409 9.14433 3.52572C9.51186 3.69039 9.81847 3.96745 10.0206 4.31752C10.2488 4.78691 10.3534 5.30739 10.3246 5.82914C10.3362 6.36993 10.2045 6.90409 9.94307 7.37674V7.38274ZM3.92865 15.5586C2.45869 15.025 1.12074 14.1778 0.00645198 13.0753V17.7841C-0.0060307 17.8738 -0.000361483 17.9651 0.0231189 18.0525C0.0465992 18.14 0.0874058 18.2217 0.143086 18.2929C0.198766 18.364 0.268169 18.4231 0.347124 18.4666C0.426079 18.5101 0.512955 18.5371 0.60253 18.5459H3.2968C4.0121 18.5459 3.92865 17.7781 3.92865 17.7781V15.5586ZM40.957 5.13331H38.6323C38.4104 5.11871 38.1906 5.18357 38.0117 5.3164C37.8328 5.44924 37.7063 5.64149 37.6547 5.85913L34.9545 13.3452C34.9545 13.3452 32.5702 6.52496 32.3914 5.99709C32.3411 5.75353 32.2098 5.53453 32.019 5.37636C31.8282 5.21819 31.5894 5.13032 31.3423 5.12732H29.2024C28.4394 5.12732 28.4394 5.72716 28.5407 5.9611C28.642 6.19504 31.5688 14.269 32.7133 17.3582C32.8935 17.7385 33.0199 18.1423 33.0888 18.5579C33.0146 18.968 32.8606 19.3594 32.6358 19.7096C32.5488 19.858 32.449 19.9985 32.3377 20.1295C34.5432 19.4696 37.1063 17.0643 38.3939 14.4669C39.6933 10.8678 41.4041 6.06907 41.4816 5.82314C41.565 5.44523 41.565 5.13331 40.957 5.13331ZM30.5972 20.8613C30.3978 20.8559 30.1988 20.8399 30.0011 20.8133C29.7567 20.7773 29.2918 20.8133 29.2918 21.2332V23.0327C29.2918 23.7226 29.6256 23.7705 29.7984 23.8185C30.3505 23.9404 30.9142 24.0008 31.4794 23.9985C32.1472 24.0162 32.8102 23.8786 33.4166 23.5966C33.9714 23.3145 34.4641 22.9228 34.8651 22.4449C35.3198 21.9217 35.7045 21.3409 36.0096 20.7173C36.3394 20.0535 36.6533 19.3197 36.9514 18.5159L37.2971 17.5621C36.6056 18.252 33.5537 21.1492 30.5972 20.8613ZM27.0803 7.28676C26.9537 6.98365 26.7807 6.70233 26.5677 6.45298C26.3523 6.222 26.1078 6.02034 25.8405 5.85313C25.5517 5.65523 25.2442 5.48646 24.9225 5.34926C24.595 5.22153 24.2582 5.11925 23.9151 5.04334C23.5225 4.95594 23.1241 4.8978 22.723 4.86938C22.2938 4.82539 21.813 4.8034 21.2805 4.8034C17.7278 4.8034 15.7052 5.93111 15.2124 8.18653C15.1914 8.2706 15.1887 8.35825 15.2046 8.44345C15.2205 8.52866 15.2545 8.60938 15.3044 8.68008C15.3542 8.75077 15.4187 8.80975 15.4934 8.85295C15.5681 8.89616 15.6512 8.92256 15.7369 8.93034H17.9246C18.5206 8.93034 18.5206 8.74439 18.7471 8.22852C18.8464 7.94767 19.0245 7.7018 19.2598 7.5207C19.8187 7.15762 20.4798 6.98711 21.1434 7.03483C21.7622 6.97118 22.3839 7.12597 22.9018 7.47272C23.2969 7.84383 23.5304 8.3569 23.5515 8.90035C23.5515 9.64416 23.325 10.136 22.4071 10.136C20.2314 10.0581 17.8948 10.304 16.5774 11.0658C15.9289 11.4641 15.3966 12.0279 15.0344 12.7C14.6722 13.3721 14.493 14.1286 14.515 14.8928C14.5 15.4881 14.6203 16.079 14.8667 16.6204C15.0988 17.0909 15.4353 17.5014 15.8502 17.8201C16.2857 18.1775 16.7886 18.4428 17.3285 18.5999C17.9384 18.7661 18.5683 18.8468 19.2002 18.8398C20.0502 18.8531 20.8971 18.7316 21.7097 18.4799C22.4278 18.1838 23.1066 17.7989 23.7304 17.3342V17.7541C23.7304 18.168 23.8555 18.5399 24.3264 18.5399H26.8598C27.3724 18.5399 27.4916 18.174 27.4916 17.7181V9.8661C27.4947 9.37635 27.4608 8.88707 27.3903 8.40248C27.334 8.01893 27.2299 7.64406 27.0803 7.28676ZM23.6171 15.0008C23.6171 15.0008 22.9614 16.3804 20.6367 16.3804C20.0793 16.4063 19.5281 16.2529 19.0631 15.9425C18.8584 15.7826 18.6966 15.5737 18.5925 15.3349C18.4884 15.096 18.4453 14.8348 18.467 14.5749C18.4414 14.2259 18.5217 13.8773 18.6973 13.5752C18.8729 13.2731 19.1356 13.0318 19.4505 12.8833C20.3909 12.5198 21.3943 12.3504 22.4011 12.3855C22.5552 12.3621 22.7124 12.3725 22.8621 12.4161C23.0118 12.4597 23.1503 12.5354 23.2681 12.638C23.3859 12.7406 23.4802 12.8677 23.5446 13.0105C23.609 13.1533 23.6418 13.3084 23.6409 13.4652L23.6171 15.0008Z" fill="#333333"/>
<path d="M81.5503 9.95025C81.8439 10.4256 81.9996 10.9741 81.9996 11.5338C81.9996 12.0936 81.8439 12.6421 81.5503 13.1174C80.9542 14.0292 77.7056 17.5203 76.6326 18.642C75.7027 19.6138 74.445 20.5975 73.1992 20.5975H47.395C43.902 20.5975 43.6934 19.3978 43.6934 16.7225V5.81131C43.6934 3.07001 44.4981 2.27222 46.8883 2.27222H73.2588C74.4927 2.27222 75.5954 2.90805 76.8353 4.19173C77.9201 5.28944 81.1211 9.30242 81.5503 9.95025Z" fill="#33CCCC"/>
<path d="M49.5521 6.48886V6.42287C49.5521 6.06896 49.5521 5.72705 48.956 5.72705H46.7922C46.2856 5.72705 46.2617 6.00298 46.2617 6.43487V9.31414C47.1152 8.11838 48.2443 7.14889 49.5521 6.48886Z" fill="white"/>
<path d="M64.0435 16.902V16.7461V9.79985C64.0435 6.89259 62.7679 5.43896 60.2167 5.43896C59.5066 5.44743 58.813 5.65517 58.2139 6.03881C57.5537 6.4532 56.964 6.97168 56.4674 7.57442C56.2426 6.92296 55.8057 6.36703 55.2275 5.99682C54.57 5.63214 53.8258 5.4558 53.0757 5.48695C51.9724 5.49113 50.9015 5.86231 50.0297 6.54268C49.839 6.73463 46.2565 9.54192 46.2565 12.4692V16.914C46.2565 17.052 46.185 17.5919 46.7871 17.5919H49.0343C49.7317 17.5919 49.6661 17.13 49.6661 16.938V9.73986C50.0416 9.22999 50.8106 8.01231 52.0802 8.01231C52.2833 7.99371 52.4876 8.03006 52.6721 8.11759C52.8565 8.20512 53.0144 8.34066 53.1293 8.51018C53.3842 9.02231 53.4955 9.59471 53.4512 10.1658V15.7743V16.926C53.4512 17.064 53.3797 17.6039 53.9817 17.6039H56.2051C56.9025 17.6039 56.8369 17.142 56.8369 16.95V16.7941V9.71587C57.2423 9.206 58.0291 7.98831 59.251 7.98831C59.4565 7.97139 59.6628 8.00837 59.8498 8.09563C60.0368 8.18289 60.1981 8.31745 60.318 8.48619C60.577 8.99702 60.6905 9.57003 60.6459 10.1418V15.7503V16.902C60.6459 17.04 60.5743 17.5799 61.1764 17.5799H63.4236C64.127 17.5439 64.0435 17.088 64.0435 16.902Z" fill="white"/>
<path d="M76.4359 14.0768C76.054 15.11 75.3543 15.9937 74.4387 16.599C73.5231 17.2042 72.4394 17.4995 71.3454 17.4419C67.912 17.4419 65.623 15.0905 65.623 11.5634C65.623 8.03631 68.0074 5.56494 71.2262 5.56494C74.445 5.56494 76.5909 7.80837 76.728 11.4254C76.728 11.8873 76.6147 12.2952 76.0365 12.2952H68.7525C68.8001 14.2327 69.7241 15.2945 71.3692 15.2945C71.806 15.3055 72.2368 15.1904 72.6107 14.963C72.9846 14.7355 73.2861 14.4051 73.4793 14.0108C73.5555 13.8992 73.658 13.8084 73.7776 13.7466C73.8973 13.6849 74.0304 13.654 74.1648 13.6569H76.0425C76.0988 13.6542 76.155 13.6643 76.207 13.6865C76.2589 13.7087 76.3052 13.7423 76.3424 13.785C76.3796 13.8276 76.4068 13.8781 76.422 13.9328C76.4371 13.9875 76.4398 14.0449 76.4299 14.1008L76.4359 14.0768ZM71.2381 7.80237C69.8731 7.80237 68.9492 8.75612 68.7465 10.3277H73.6343C73.5092 8.95407 72.77 7.80237 71.2381 7.80237Z" fill="white"/>
</svg>
