<svg width="114" height="26" viewBox="0 0 114 26" fill="none" xmlns="http://www.w3.org/2000/svg">
<g clip-path="url(#clip0_5701_46779)">
<path d="M9.75126 23.4839C15.3301 23.4839 19.2154 19.2946 19.2154 13.8388C19.2154 8.38292 15.3301 4.1936 9.75126 4.1936C4.17239 4.1936 0.287109 8.38292 0.287109 13.8388C0.287109 19.2946 4.17239 23.4839 9.75126 23.4839Z" fill="#20CC6D"/>
<path d="M38.144 11.84C38.144 7.53058 35.3064 4.1936 31.1765 4.1936C29.1987 4.1936 27.5555 4.89388 26.3922 6.11303V5.51763C26.3922 4.86554 26.0141 4.52909 25.3451 4.52909H22.8439C22.175 4.52909 21.7969 4.86554 21.7969 5.51763V24.9771C21.7969 25.6292 22.175 26.0001 22.8439 26.0001H25.3451C26.0141 26.0001 26.3922 25.6292 26.3922 24.9771V17.567C27.5555 18.7862 29.1987 19.6259 31.1765 19.6259C35.3064 19.6259 38.144 16.1495 38.144 11.84ZM33.6195 11.84C33.6195 13.9381 32.0345 15.5257 30.0131 15.5257C27.9918 15.5257 26.3922 13.9381 26.3922 11.84C26.3922 9.75618 27.9918 8.15433 30.0131 8.15433C32.0345 8.15433 33.6195 9.75618 33.6195 11.84Z" fill="black"/>
<path d="M39.0039 11.84C39.0039 16.1495 41.9128 19.6259 46.0571 19.6259C48.0351 19.6259 49.6638 18.7862 50.8416 17.567V18.1624C50.8416 18.8145 51.2198 19.2904 51.8887 19.2904H54.3042C54.9732 19.2904 55.3513 18.8145 55.3513 18.1624V5.51763C55.3513 4.86554 54.9732 4.52909 54.3042 4.52909H51.8887C51.2198 4.52909 50.8416 4.86554 50.8416 5.51763V6.11303C49.6638 4.89388 48.0351 4.1936 46.0571 4.1936C41.9128 4.1936 39.0039 7.53058 39.0039 11.84ZM43.614 11.84C43.614 9.75618 45.1846 8.15433 47.2061 8.15433C49.2422 8.15433 50.8416 9.75618 50.8416 11.84C50.8416 13.9381 49.2422 15.5257 47.2061 15.5257C45.1846 15.5257 43.614 13.9381 43.614 11.84Z" fill="black"/>
<path d="M59.8344 26H62.539C63.1353 26 63.528 26.0001 63.7315 25.1755L70.7492 5.67351C70.8094 5.50783 70.8374 5.38525 70.8374 5.22145C70.8374 4.76741 70.5349 4.52905 69.9408 4.52905H67.2651C66.6546 4.52905 66.2619 4.78046 66.0872 5.34747L63.528 13.3993L61.0123 5.34747C60.8376 4.78046 60.4448 4.52905 59.8344 4.52905H57.1586C56.5572 4.52905 56.2109 4.77379 56.2109 5.23759C56.2109 5.38525 56.2428 5.51441 56.3004 5.67351L61.2592 19.2903L59.0201 24.807C58.7293 25.5299 59.0489 26 59.8344 26Z" fill="black"/>
<path d="M80.6265 4.1936C78.9105 4.1936 77.385 4.83719 76.3672 6.04212V5.51763C76.3672 4.86554 75.9891 4.52909 75.3201 4.52909H72.7459C72.0769 4.52909 71.6992 4.86554 71.6992 5.51763V18.1624C71.6992 18.8145 72.0769 19.2904 72.7459 19.2904H75.3201C75.9891 19.2904 76.3672 18.8145 76.3672 18.1624V11.2446C76.3672 9.23169 77.718 8.15433 79.2305 8.15433C80.583 8.15433 81.6589 9.37343 81.6589 10.6918V18.1624C81.6589 18.8145 82.0371 19.2904 82.706 19.2904H85.2798C85.9488 19.2904 86.3256 18.8145 86.3256 18.1624V9.96883C86.3256 6.49578 83.9278 4.1936 80.6265 4.1936Z" fill="black"/>
<path d="M110.558 13.8671V8.43784H112.782C113.451 8.43784 113.858 8.06927 113.858 7.41717V5.51762C113.858 4.86552 113.451 4.52908 112.782 4.52908H110.558V0.943318C110.558 0.369068 110.214 0.0051186 109.649 5.35759e-05C109.577 -0.000591139 109.502 0.00457881 109.423 0.0157833L106.82 0.376285C106.18 0.475515 105.86 0.844086 105.86 1.46782V4.52908H104.652C103.983 4.52908 103.533 4.86552 103.533 5.51762V7.41717C103.533 8.06927 103.983 8.43784 104.652 8.43784H105.86V14.335C105.86 17.6237 107.838 19.6259 111.052 19.6259C111.837 19.6259 112.593 19.503 113.233 19.2904C113.785 19.1061 113.858 18.5877 113.858 18.0207V16.5606C113.858 15.8801 113.625 15.5541 112.928 15.5824H112.477C111.095 15.5824 110.558 15.0438 110.558 13.8671Z" fill="black"/>
<path d="M91.9538 13.1017H102.358C102.984 13.1017 103.423 12.804 103.481 12.1944C103.51 11.996 103.533 11.7833 103.533 11.5991C103.533 7.47392 100.141 4.1936 95.5312 4.1936C90.834 4.1936 87.1855 7.53062 87.1855 11.84C87.1855 16.1495 90.7471 19.6259 95.9528 19.6259C98.6286 19.6259 100.693 18.5736 102.234 17.1702C102.728 16.7165 102.699 16.2062 102.263 15.7242L101.638 15.0438C101.202 14.5618 100.721 14.5476 100.169 14.9162C99.0054 15.7101 97.6254 16.0928 96.0113 16.0928C93.7717 16.0928 92.2884 14.9587 91.9538 13.1017ZM95.4731 7.58732C97.2038 7.58732 98.4677 8.60798 98.8312 10.224H92.0265C92.4773 8.57964 93.7717 7.58732 95.4731 7.58732Z" fill="black"/>
</g>
<defs>
<clipPath id="clip0_5701_46779">
<rect width="114" height="26" fill="white"/>
</clipPath>
</defs>
</svg>
