<svg width="91" height="26" viewBox="0 0 91 26" fill="none" xmlns="http://www.w3.org/2000/svg">
<g id="Frame" clip-path="url(#clip0_2692_33994)">
<g id="Group">
<path id="Vector" fill-rule="evenodd" clip-rule="evenodd" d="M13.0362 0C10.454 0 7.94017 0.760035 5.7903 2.18935C3.6518 3.61867 1.97967 5.64921 0.990048 8.02007C0.000422857 10.4023 -0.249827 13.0113 0.250673 15.541C0.751173 18.0593 1.99105 20.3848 3.82242 22.1998C5.6538 24.0148 7.96292 25.2513 10.4882 25.7504C13.0134 26.2496 15.641 26 18.0184 25.0131C20.3958 24.0262 22.4319 22.3586 23.8652 20.226C25.2984 18.0934 26.0605 15.575 26.0605 13C26.0605 9.55148 24.6842 6.25044 22.2385 3.81152C19.8043 1.3726 16.4942 0 13.0362 0ZM11.5347 4.51483C12.0238 4.46946 12.5243 4.44677 13.0362 4.44677C13.548 4.44677 14.0372 4.44677 14.5377 4.51483V11.4572H11.5347V4.51483ZM21.4309 13.5785C21.4309 15.8019 20.5437 17.9346 18.9739 19.5C17.4042 21.0654 15.2657 21.9503 13.0362 21.9503C10.8067 21.9503 8.67955 21.0654 7.09842 19.5C5.52867 17.9346 4.64142 15.8019 4.64142 13.5785V8.56457C5.73342 8.20157 6.84817 7.91798 7.9743 7.71379V13.5558C7.9743 17.7531 9.76017 19.9538 13.0362 19.9538C16.3122 19.9538 18.098 17.7531 18.098 13.5558V7.70244C19.2242 7.90663 20.3389 8.19023 21.4309 8.55323V13.5785Z" fill="#7000FF"/>
<path id="Vector_2" d="M46.5809 7.71387H56.625V10.2549L50.5394 15.7112V15.7566H56.8412V18.2976H46.2852V15.7566L52.3708 10.3003V10.2549H46.5809V7.71387Z" fill="#7000FF"/>
<path id="Vector_3" d="M41.0184 13.5104V7.70239H44.0669V13.9755C44.0669 17.9685 40.8591 18.4903 38.3225 18.4903C35.7859 18.4903 32.5781 18.1614 32.5781 13.9755V7.70239H35.6266V13.5104C35.6266 15.3481 36.8438 15.7905 38.3339 15.7905C39.8126 15.7905 41.0184 15.3708 41.0184 13.5104Z" fill="#7000FF"/>
<path id="Vector_4" d="M67.6707 7.70239V13.5104C67.6707 15.3821 66.465 15.7905 64.9748 15.7905C63.4847 15.7905 62.279 15.3595 62.279 13.5104V7.70239H59.2305V13.9755C59.2305 18.1614 62.4382 18.4903 64.9748 18.4903C67.5115 18.4903 70.7192 17.9685 70.7192 13.9755V7.70239H67.6707Z" fill="#7000FF"/>
<path id="Vector_5" d="M82.106 8.64409C83.1638 7.88406 84.4378 7.48702 85.746 7.50971C89.568 7.50971 91.0012 9.94863 91.0012 12.1493V18.2977H87.9755V12.4556C87.9755 11.5027 87.5091 10.2209 85.8256 10.2209C84.4265 10.2209 83.6985 11.2078 83.6985 12.104V18.2977H80.6158V12.104C80.6158 11.1964 79.8651 10.2209 78.466 10.2209C76.7825 10.2209 76.3161 11.4914 76.3161 12.4556V18.2977H73.2676V12.1493C73.2676 9.93728 74.5643 7.50971 78.3977 7.50971C79.7286 7.48702 81.014 7.88406 82.106 8.64409Z" fill="#7000FF"/>
</g>
</g>
<defs>
<clipPath id="clip0_2692_33994">
<rect width="91" height="26" fill="white"/>
</clipPath>
</defs>
</svg>
